<?xml version="1.0" encoding="utf-8"?>
<!-- Generator: Adobe Illustrator 24.3.0, SVG Export Plug-In . SVG Version: 6.00 Build 0)  -->
<svg version="1.1" id="ec0dd667-d318-4b3f-ae69-b5acae297142"
	 xmlns="http://www.w3.org/2000/svg" xmlns:xlink="http://www.w3.org/1999/xlink" x="0px" y="0px" viewBox="0 0 530.3 142.5"
	 style="enable-background:new 0 0 530.3 142.5;" xml:space="preserve">
<style type="text/css">
	.st0{fill:#FB1357;}
	.st1{fill:#24A1F2;}
	.st2{fill:#3DFB84;}
	.st3{opacity:0.4;fill:#FFFFFF;}
</style>
<polygon class="st0" points="307.2,102.8 339.2,98.8 328.1,142.5 "/>
<polygon class="st1" points="410.5,80.1 425.7,109.5 432.8,71.8 "/>
<polygon class="st1" points="83,64.5 86.7,102.7 104.5,74.9 "/>
<polygon class="st0" points="18.8,20.6 4,50.8 39.5,37.8 "/>
<polygon class="st2" points="155.9,92.1 168,128.5 179.2,97.4 "/>
<polygon class="st2" points="480.7,44.5 516.4,58.7 499.7,30.2 "/>
<path class="st3" d="M529.6,0L529,0.6C469.6,68.9,385.1,92.3,324.6,100c-21.8,2.8-42,3.7-59.4,3.8c-17.4,0-37.7-1-59.5-3.8
	C145.2,92.4,60.7,68.9,1.3,0.6L0.7,0L0,0.4l0.3,2.2C26.6,32.7,60,56.7,99.4,73.8c31.7,13.8,67.4,23.3,106.1,28.2
	c0.2,0,0.3,0,0.5,0.1l0,0.1c0.2,0,11,1.7,28.7,2.7c12.6,0.8,25.2,1,37.8,0.8c7.7-0.1,15.4-0.4,23.1-0.8c17.7-1,28.5-2.7,28.7-2.7
	l0-0.1c0.2,0,0.3,0,0.5-0.1c38.7-4.9,74.4-14.4,106.1-28.2c39.4-17.2,72.8-41.1,99.1-71.2l0.3-2.2L529.6,0z"/>
</svg>
