<?xml version="1.0" encoding="utf-8"?>
<!-- Generator: Adobe Illustrator 24.3.0, SVG Export Plug-In . SVG Version: 6.00 Build 0)  -->
<svg version="1.1" id="f38ee091-c82c-4da1-851f-4c077abd9110"
	 xmlns="http://www.w3.org/2000/svg" xmlns:xlink="http://www.w3.org/1999/xlink" x="0px" y="0px" viewBox="0 0 166 414.5"
	 style="enable-background:new 0 0 166 414.5;" xml:space="preserve">
<style type="text/css">
	.st0{fill:none;stroke:#2F2E41;stroke-width:2;}
	.st1{fill:#3DFB84;}
	.st2{opacity:0.4;fill:#FFFFFF;enable-background:new    ;}
</style>
<path class="st0" d="M91.1,198c-10.4,3.6-12.9,17.8-9.3,28.2s11.2,19.1,15,29.4c1.7,5.2,3,10.6,3.7,16c2.2,13,4.4,26.2,2.7,39.2
	c-1.6,12.4-6.6,24.1-12.2,35.2c-10.8,21.6-24,42-39.3,60.7"/>
<path class="st1" d="M166,83c0,45.8-37.2,119-83,119S0,128.8,0,83S37.2,0,83,0S166,37.2,166,83L166,83z"/>
<ellipse class="st2" cx="117.5" cy="48" rx="17.5" ry="21"/>
</svg>
