<?xml version="1.0" encoding="utf-8"?>
<!-- Generator: Adobe Illustrator 24.1.2, SVG Export Plug-In . SVG Version: 6.00 Build 0)  -->
<svg version="1.1" id="Ebene_1" xmlns="http://www.w3.org/2000/svg" xmlns:xlink="http://www.w3.org/1999/xlink" x="0px" y="0px"
	 viewBox="0 0 269.3 383" style="enable-background:new 0 0 269.3 383;" xml:space="preserve">
<style type="text/css">
	.st0{fill:#FFFFFF;}
</style>
<path id="selection_to_path" class="st0" d="M110.3,0.9v0.2H109v0.2h-0.7v0.2h-0.4v0.2h-0.4V2l-0.2,0.2h-0.2v0.2h-0.4v0.2h-0.2v0.2
	h-0.2v0.2H106l-0.2,0.2v0.2h-0.4v0.2h-0.2v0.2h-0.2l-0.2,0.2v0.2h-0.4v0.2h-0.2v0.2h-0.2V5h-0.4v0.2h-0.2v0.2H103l-0.2,0.2v0.2h-0.2
	L102.4,6v0.2h-0.2v0.2L102,6.7h-0.2v0.2h-0.2l-0.2,0.2v0.4h-0.2v0.2h-0.2v0.4h-0.2v0.2h-0.2v0.4h-0.2v0.4l-0.2,0.2h-0.2v0.5h-0.2
	v0.4h-0.2v0.4h-0.2v0.4H99v0.4h-0.2V12h-0.2v0.2h-0.2v0.4h-0.2l-0.2,0.2v0.2h-0.2l-0.2,0.2v0.2h-0.2v0.2h-0.2v0.4h-0.2l-0.2,0.2v0.2
	h-0.2v0.2h-0.2v0.5L96,15.4h-0.2v0.4h-0.2v0.2h-0.2l-0.2,0.2v0.4h-0.2v0.2h-0.2v0.2l-0.2,0.2h-0.2v0.2l-0.2,0.2h-0.2V18l-0.2,0.2
	h-0.2v0.2h-0.2v0.4H93v0.2h-0.2l-0.2,0.2v0.2h-0.2l-0.2,0.2v0.4h-0.2v0.5h-0.2V21h-0.2v0.4h-0.2v0.4h-0.2v0.7h-0.2l-0.2,0.2v0.4
	h-0.2v0.2h-0.2v0.4H90V24l-0.2,0.2h-0.2v0.2h-0.2l-0.2,0.2V25h-0.2v0.2h-0.2v0.4h-0.2v0.4h-0.2v0.4h-0.2v0.4h-0.2v0.5h-0.2V28h-0.2
	v0.4h-0.2v0.4H87v0.2h-0.2v0.4h-0.2v0.2h-0.2v0.4h-0.2v0.2h-0.2v0.5L85.7,31h-0.2v0.7h-0.2v0.6h-0.2v0.9h-0.2v1.1h-0.2v0.6h-0.2v0.4
	h-0.2v0.4H84v0.5h-0.2v0.4h-0.2V37h-0.2v0.4h-0.2v0.4H83v0.4h-0.2v0.4h-0.2v0.2l-0.2,0.2h-0.2v0.5l-0.2,0.2h-0.2V40h-0.4l-0.2,0.2
	v0.2h-0.2v0.2h-0.4v0.2h-0.2v0.2h-0.4l-0.2,0.2v0.2h-0.5l-0.2,0.2v0.2h-0.2l-0.2,0.2v0.2h-0.2v0.4h-0.2V43h-0.2v0.4l-0.2,0.2h-0.2
	V44h-0.2v0.2H77v0.4h-0.2v0.2l-0.2,0.2h-0.2v0.2l-0.2,0.2h-0.2V46h-0.2v0.2h-0.2v0.2h-0.2v0.4h-0.2v0.4h-0.2v0.4h-0.2v0.7h-0.2v2.8
	h0.2v0.7h0.2v0.4h0.2l0.2,0.2v0.2h0.2l0.2,0.2V53h0.5v0.2h0.4v0.2H77v0.2h0.7v0.2h0.6v0.2h0.4v0.2h0.2v0.2h0.4v0.2h0.2V55H80v0.2
	l0.2,0.2h0.4v0.2h0.2v0.2h0.4V56h0.2v0.2h0.4v0.2h0.4v0.2l0.2,0.2H83v0.2l0.2,0.2h0.4v0.2h0.2v0.2h0.4V58h0.2v0.2h0.4v0.2h0.4v0.2
	h0.4v0.2h0.7V59h0.8v0.2h0.8v0.2h1.1v0.2H90v0.2h0.7v0.2h0.6v0.2h0.2v0.2h0.4v0.2h0.4V61h0.2l0.2,0.2v0.2h0.5l0.2,0.2v0.2h0.4V62
	h0.2v0.2h0.4v0.2h0.4v0.2h0.4v0.2h0.2v0.2H96v0.2h0.4v0.2h0.4v0.2h0.4V64h0.8v0.2h1.3v0.2h1.5v0.2h0.8v0.2h0.8V65h0.9v0.2h0.6v0.2
	h0.4v0.2h0.4v0.2h0.2v0.2h0.4v0.2h0.2l0.2,0.2v0.2h0.2v0.2h0.4v0.2h0.2v0.2h0.2v0.2h0.2v0.2l0.2,0.2h0.2v0.2h1.5v0.2h0.8v0.2h0.4
	v0.2h0.4v0.2h0.4v0.2h0.4v0.2h0.5v0.2h0.4v0.2h0.6v0.2h0.9v0.2h5.1v-0.2h0.8v-0.2h0.4v-0.2h0.5v-0.2l0.2-0.2h0.4v-0.2h0.2l0.2-0.2
	v-0.2h0.2v-0.2h0.2V68l0.2-0.2h0.2v-0.4h0.2v-0.2h0.2v-0.4h0.2v-0.4h0.2v-0.7h0.2v-0.4h0.2v-0.4h0.2v-0.4h0.2V64h0.2v-0.5l0.2-0.2
	h0.2v-0.2l0.2-0.2h0.2v-0.4h0.2v-0.2h0.2V62h0.2v-0.2h0.2v-0.2h0.2l0.2-0.2v-0.2h0.2l0.2-0.2v-0.2h0.2v-0.2h0.2v-0.4h0.2v-0.2h0.2
	v-0.4h0.2V59h0.2v-0.2h0.2v-0.4h0.2V58h0.2v-0.4h0.2v-0.2h0.2v-0.4h0.2v-0.4h0.2v-0.2h0.2v-0.4h0.2l0.2-0.2v-0.4h0.2V55h0.2v-0.2
	h0.2v-0.4h0.2l0.2-0.2v-0.2h0.2v-0.4l0.2-0.2h0.2V53h0.2v-0.4h0.2v-0.2h0.2l0.2-0.2v-0.4h0.2v-0.2h0.2v-0.4h0.2v-0.4h0.2v-0.2h0.2
	V50h0.2v-0.4h0.2v-0.4h0.2V49h0.2v-0.4h0.2v-0.4h0.2v-0.2h0.2v-0.4l0.2-0.2h0.2v-0.4h0.2v-0.4h0.2V46h0.2v-0.4h0.2v-0.6h0.2v-0.4
	h0.2V44h0.2v-0.4h0.2v-0.4h0.2v-0.4h0.2v-0.4h0.2v-0.2h0.2v-0.4l0.2-0.2h0.2v-0.4h0.2v-0.2h0.2v-0.2h0.2l0.2-0.2V40h0.2v-0.2
	l0.2-0.2h0.2v-0.2h0.2v-0.2h0.2l0.2-0.2v-0.2h0.2v-0.4h0.2l0.2-0.2v-0.4h0.2v-0.5h0.2v-0.4h0.2v-0.4h0.2v-0.4h0.2v-0.4h0.2v-0.4h0.2
	v-0.4h0.2v-0.4h0.2v-0.5h0.2v-0.6h0.2v-0.7h0.2v-0.7h0.2V31h0.2v-0.4h0.2v-0.4h0.2v-0.4h0.2v-0.4h0.2v-0.5h0.2l0.2-0.2v-0.4h0.2V28
	h0.2v-0.4h0.2v-0.4h0.2v-0.7h0.2v-1.7h-0.2v-0.4h-0.2V24h-0.2v-0.2h-0.2v-0.2h-0.2v-0.2H146v-0.2l-0.2-0.2h-0.4v-0.2h-0.2v-0.2h-0.4
	v-0.2h-0.2l-0.2-0.2v-0.2h-0.2v-0.2l-0.2-0.2h-0.2v-0.2l-0.2-0.2h-0.2v-0.2H143l-0.2-0.2v-0.2h-0.2v-0.2l-0.2-0.2h-0.2v-0.2
	l-0.2-0.2h-0.2v-0.2h-0.2v-0.2h-0.4v-0.2l-0.2-0.2h-0.2v-0.2h-0.2v-0.2h-0.2V18h-0.4v-0.2h-0.2l-0.2-0.2v-0.2H139v-0.2h-0.2v-0.2
	h-0.4v-0.2l-0.2-0.2h-0.2v-0.2h-0.2v-0.4l-0.2-0.2h-0.2v-0.2H137V15h-0.2v-0.2l-0.2-0.2h-0.2v-0.4h-0.2v-0.2l-0.2-0.2h-0.2v-0.2
	h-0.4v-0.2l-0.2-0.2h-0.2v-0.2h-0.4v-0.2H134v-0.2h-0.4v-0.2h-0.4V12h-0.5v-0.2h-0.6v-0.2h-0.4v-0.2h-0.4v-0.2H131v-0.2h-0.4v-0.2
	h-0.4v-0.2H130l-0.2-0.2v-0.2h-0.5l-0.2-0.2V9.7h-0.4V9.4h-0.4V9.2H128V9h-0.4V8.8h-0.4V8.6H127V8.4h-0.4V8.2h-0.2V7.9h-0.5V7.7
	h-0.4V7.5l-0.2-0.2h-0.4V7.1h-0.4V6.9H124V6.7l-0.2-0.2h-0.4V6.2h-0.2V6h-0.4l-0.2-0.2V5.6H122l-0.2-0.2V5.2h-0.4V5H121V4.7h-0.7
	V4.5h-0.8V4.3h-0.7V4.1h-0.7V3.9h-0.6V3.7h-0.5l-0.2-0.2V3.2h-0.2V3.1h-0.4V2.8h-0.2V2.6h-0.2l-0.2-0.2V2.2h-0.2V2h-0.2V1.7h-0.4
	l-0.2-0.2V1.3h-0.7V1.1h-1.3V0.9H110.3z M155.2,28.4v0.2h-0.6v0.2h-0.4v0.2h-0.2v0.2l-0.2,0.2h-0.2v0.4h-0.2v0.2l-0.2,0.2h-0.2v0.2
	h-0.4v0.2H152V31h-1.9v0.2h-0.7v0.2H149v0.2l-0.2,0.2h-0.2v0.2h-0.2v0.4h-0.2v0.2h-0.2v0.6h-0.2v0.4h-0.2v0.5h-0.2v0.4h-0.2
	l-0.2,0.2v0.4h-0.2v0.4h-0.2v0.5l-0.2,0.2H146v0.4h-0.2v0.4h-0.2v0.2h-0.2v0.2h-0.2v0.4h-0.2l-0.2,0.2v0.2h-0.2v0.4h-0.2v0.4h-0.2
	v0.2h-0.2V40h-0.2v0.4h-0.2v0.4h-0.2v0.2H143v0.4l-0.2,0.2h-0.2v0.4h-0.2v0.4h-0.2V43H142v0.6h-0.2V44h-0.2v0.5h-0.2v0.6h-0.2v0.4
	h-0.2V46h-0.2v0.5l-0.2,0.2h-0.2V47H140v0.2h-0.2v0.4h-0.2v0.4h-0.2v0.4h-0.2v0.2H139v0.4h-0.2l-0.2,0.2v0.5h-0.2l-0.2,0.2v0.2h-0.2
	v0.4h-0.2l-0.2,0.2v0.2h-0.2l-0.2,0.2v0.2h-0.2V52h-0.2v0.2h-0.2v0.2h-0.2v0.4H136v0.5h-0.2v0.4l-0.2,0.2h-0.2v0.4h-0.2v0.4h-0.2V55
	h-0.2v0.4h-0.2v0.4h-0.2v0.4H134v0.5h-0.2v0.4h-0.2v0.6h-0.2v0.4h-0.2v0.5H133V59h-0.2v0.4l-0.2,0.2h-0.2v0.2h-0.2v0.2h-0.2
	l-0.2,0.2v0.2h-0.2l-0.2,0.2v0.4H131v0.2h-0.2l-0.2,0.2v0.2h-0.2V62l-0.2,0.2H130v0.2h-0.2v0.4h-0.2v0.2h-0.2v0.4h-0.2v0.2h-0.2v0.4
	h-0.2v0.4h-0.2v0.7h-0.2v0.4H128v0.7h-0.2v0.4h-0.2v0.4h-0.2v0.4h-0.2v0.2H127v0.4h-0.2v0.4h-0.2v0.4h-0.2v0.7h-0.2v1.1h-0.2v1.3
	h0.2v1.1h0.2v0.6h0.2V74h0.2v0.4h0.2v0.2h0.2l0.2,0.2v0.2h0.5v0.2h0.4v0.2h0.6v0.2h1.5v0.2h1.5v0.2h0.7v0.2h0.4v0.2h0.4v0.2h0.2V77
	h0.4l0.2,0.2v0.2h0.5v0.2l0.2,0.2h0.4v0.2h0.2v0.2h0.4v0.2h0.4v0.2h0.4v0.2h0.2v0.2h0.4v0.2h0.4v0.2h0.2v0.2h0.6V80h0.4v0.2h0.7v0.2
	h0.7v0.2h0.6v0.2h0.7v0.2h0.7v0.2h0.4v0.2h0.7l0.2,0.2v0.2h0.4v0.2h0.4v0.2h0.2v0.2h0.4v0.2h0.4V83h0.4v0.2h0.4v0.2h0.2v0.2h0.4v0.2
	h0.2V84h0.4v0.2h0.2v0.2h0.4v0.2h0.2v0.2h0.4v0.2h0.4v0.2h0.4v0.2h0.7v0.2h0.7v0.2h0.6v0.2h0.7v0.2h0.7v0.2h0.7v0.2h0.4V87h0.4v0.2
	l0.2,0.2h0.2v0.2h0.4v0.2h0.2l0.2,0.2v0.2h0.2l0.2,0.2v0.4h0.2v0.2h0.2v0.4h0.2v1.1h0.2v3.4h-0.2v1.3h-0.2v0.8h-0.2v0.9h-0.2v0.8
	h-0.2v0.7h-0.2V99h-0.2v0.4h-0.2v0.4h-0.2v0.4H155v0.7h-0.2v0.4h-0.2v1.5h-0.2v5.3h-0.2v1.1h-0.2v0.8h-0.2v2.3h0.2v0.4h0.2v0.2
	l0.2,0.2h0.4v0.2h0.9v-0.2h0.8v-0.2h0.4v-0.2h0.4v-0.2h0.4v-0.2h0.2v-0.2h0.4V112h0.4v-0.2h0.2v-0.2h0.4v-0.2l0.2-0.2h0.2v-0.2
	l0.2-0.2h0.4v-0.2h0.2v-0.2h0.2v-0.2h0.2v-0.2h0.2l0.2-0.2v-0.2h0.2l0.2-0.2V109h0.2v-0.2h0.2v-0.2h0.2v-0.2h0.2l0.2-0.2v-0.2h0.2
	l0.2-0.2v-0.2h0.2l0.2-0.2v-0.2h0.2v-0.2h0.2v-0.2h0.2v-0.2h0.2l0.2-0.2V106h0.2l0.2-0.2v-0.2h0.2v-0.2h0.2v-0.2h0.4v-0.2l0.2-0.2
	h0.4v-0.2h0.2v-0.2h0.4v-0.2h0.4v-0.2h0.2v-0.2h0.4l0.2-0.2v-0.2h0.5V103l0.2-0.2h0.2v-0.2l0.2-0.2h0.2v-0.2h0.2v-0.4h0.2v-0.2h0.2
	v-0.4h0.2v-0.2h0.2v-0.4h0.2v-0.4h0.2v-0.2h0.2v-0.4h0.2v-0.2h0.2v-0.4h0.2v-0.2h0.2v-0.2h0.2v-0.4h0.2v-0.2l0.2-0.2h0.2v-0.4h0.2
	v-0.2h0.2v-0.4h0.2V96h0.2v-0.2h0.2v-0.4l0.2-0.2h0.2v-0.2l0.2-0.2h0.2v-0.2h0.2v-0.2h0.2l0.2-0.2v-0.2h0.2v-0.2h0.2v-0.2l0.2-0.2
	h0.2V93h0.2v-0.4h0.2v-0.2l0.2-0.2h0.2v-0.2h0.2l0.2-0.2v-0.4h0.2v-0.2h0.2v-0.4h0.2v-0.4h0.2v-0.4h0.2v-0.7h0.2v-0.7h0.2v-0.6h0.2
	v-0.5l0.2-0.2h0.2v-0.4h0.2v-0.2h0.2l0.2-0.2v-0.2h0.2v-0.2h0.2l0.2-0.2v-0.2h0.2l0.2-0.2v-0.2h0.2l0.2-0.2v-0.2h0.2l0.2-0.2v-0.2
	h0.2V84h0.2v-0.4l0.2-0.2h0.2v-0.2h0.2v-0.4h0.2v-0.2h0.2v-0.4h0.2v-0.6h0.2v-0.4h0.2v-0.7h0.2V80h0.2v-0.4h0.2v-0.4h0.2v-0.5h0.2
	l0.2-0.2v-0.2h0.2v-0.2h0.2v-0.2l0.2-0.2h0.2v-0.2h0.2v-0.2h0.2l0.2-0.2v-0.4h0.2v-0.2h0.2l0.2-0.2v-0.2h0.2l0.2-0.2v-0.2h0.2v-0.4
	h0.2v-0.2h0.2v-0.4l0.2-0.2h0.2v-0.7h0.2v-0.4h0.2v-0.4h0.2v-0.7h0.2v-0.4h0.2v-0.4h0.2v-0.4h0.2v-0.2h0.2v-0.2l0.2-0.2h0.2v-0.4
	h0.2v-0.2h0.2l0.2-0.2v-0.2h0.2l0.2-0.2v-0.5h0.2v-0.6h0.2v-2.3h0.2v-1.1h0.2V64h0.2v-0.7h0.2v-0.4h0.2v-0.4h0.2V62h0.2v-0.7h0.2
	v-0.8h0.2v-0.9h0.2v-0.8h0.2v-0.7h0.2v-1h0.2V56h0.2v-2.2h-0.2v-0.4h-0.2V53H196v-0.2h-0.2v-0.4l-0.2-0.2h-0.5V52l-0.2-0.2h-0.2
	v-0.2h-0.2v-0.2h-0.4v-0.2h-0.2v-0.2l-0.2-0.2h-0.5v-0.2l-0.2-0.2h-0.2V50h-0.4l-0.2-0.2v-0.2h-0.4v-0.2h-0.5v-0.2h-0.4V49h-0.4
	v-0.2H190v-0.2h-0.2v-0.2h-0.4v-0.2h-0.2v-0.2h-0.2v-0.2h-0.4v-0.2l-0.2-0.2h-0.2V47h-0.2l-0.2-0.2v-0.2h-0.2l-0.2-0.2v-0.2H187V46
	l-0.2-0.2h-0.2v-0.2h-0.2l-0.2-0.2v-0.2h-0.2l-0.2-0.2v-0.2h-0.2l-0.2-0.2v-0.2h-0.2V44l-0.2-0.2h-0.2v-0.2h-0.2l-0.2-0.2v-0.2H184
	V43h-0.4v-0.2h-0.2v-0.2h-0.2v-0.2h-0.4v-0.2h-0.2l-0.2-0.2v-0.2h-0.4v-0.2h-0.2v-0.2l-0.2-0.2H181v-0.2h-0.2v-0.2h-0.2l-0.2-0.2
	v-0.2h-0.2L180,40v-0.2h-0.5l-0.2-0.2v-0.2h-0.2v-0.2h-0.4v-0.2h-0.4v-0.2h-0.4v-0.2h-0.4v-0.2H177v-0.2h-0.4v-0.2h-0.5v-0.2h-0.4
	v-0.2h-0.4v-0.2h-0.4V37h-0.4v-0.2h-0.7v-0.2h-0.8v-0.2h-0.7v-0.2h-0.6v-0.2h-0.4v-0.2h-0.5v-0.2h-0.4v-0.2h-0.4l-0.2-0.2v-0.2h-0.4
	v-0.2h-0.5v-0.2h-0.4v-0.2H168V34h-0.4v-0.2h-0.4v-0.2h-0.4v-0.2h-0.2v-0.2h-0.4v-0.2l-0.2-0.2h-0.2v-0.2h-0.4v-0.2H165v-0.2h-0.4
	v-0.2l-0.2-0.2h-0.5v-0.2l-0.2-0.2h-0.4V31h-0.7v-0.2h-0.4v-0.2h-0.8v-0.2h-0.9v-0.2h-0.8v-0.2h-0.4v-0.2h-0.4v-0.2h-0.4v-0.2H158
	v-0.2h-0.4v-0.2h-0.7v-0.2h-0.8v-0.2H155.2z M62.6,52.8V53H62v0.2h-0.5v0.2h-0.4v0.2L61,53.9h-0.4v0.2h-0.2v0.2h-0.2v0.2h-0.4
	l-0.2,0.2V55h-0.2v0.2h-0.4l-0.2,0.2v0.2h-0.5L58,55.8V56h-0.2v0.2h-0.4v0.2h-0.2v0.2h-0.2v0.2h-0.2v0.2l-0.2,0.2h-0.2v0.2L56,57.7
	h-0.2V58l-0.2,0.2h-0.2v0.2h-0.2v0.2H55v0.2h-0.2v0.4h-0.2v0.2h-0.2l-0.2,0.2v0.5h-0.2l-0.2,0.2v0.4h-0.2V61l-0.2,0.2H53v0.2h-0.2
	v0.4h-0.2V62h-0.2l-0.2,0.2v0.2H52l-0.2,0.2v0.2h-0.2v0.4h-0.2l-0.2,0.2V64h-0.2v0.4h-0.2v0.4h-0.2v0.7h-0.2v0.4H50v0.6h-0.2v0.2
	h-0.2v0.4h-0.2v0.2l-0.2,0.2H49v0.2L48.8,68h-0.2v0.2l-0.2,0.2h-0.5v0.2h-0.2v0.2h-0.2l-0.2,0.2v0.2H47l-0.2,0.2v0.2h-0.2l-0.2,0.2
	v0.4h-0.2v0.2H46v0.2h-0.2v0.4h-0.2l-0.2,0.2v0.4h-0.2v0.2h-0.2v0.2h-0.2v0.2h-0.2v0.2l-0.2,0.2H44v0.4h-0.2v0.2h-0.2l-0.2,0.2V74
	h-0.2v0.4H43v0.4h-0.2v0.4h-0.2v0.5h-0.2v0.6h-0.2V77h-0.2v0.4h-0.2v0.4h-0.2v0.4h-0.2v0.4H41v0.2h-0.2v0.2h-0.2v0.4h-0.2V80h-0.2
	v0.4H40v0.4h-0.2v0.7h-0.2v0.4h-0.2v0.6h-0.2v0.2h-0.2v0.4h-0.2v0.2l-0.2,0.2h-0.2v0.2L38.1,84h-0.2v0.2h-0.2v0.2h-0.4L37,84.7v0.2
	h-0.2l-0.2,0.2v0.2h-0.2l-0.2,0.2v0.4h-0.2v0.2h-0.2v0.4h-0.2v0.7h-0.2v0.8h-0.2v0.8h-0.2v0.9h-0.2v0.4h-0.2v0.4l-0.2,0.2H34v0.2
	h-0.2v0.4h-0.2v0.2h-0.2l-0.2,0.2v0.2h-0.2l-0.2,0.2v0.2h-0.2v0.2h-0.2V93h-0.2v0.2h-0.2l-0.2,0.2v0.2h-0.2l-0.2,0.2v0.2H31
	l-0.2,0.2v0.2h-0.2v0.2h-0.2l-0.2,0.2v0.4h-0.2v0.2h-0.2V96h-0.2v0.4h-0.2v0.4h-0.2v0.7h-0.2v0.6h-0.2v0.5h-0.2V99h-0.2v0.4H28
	l-0.2,0.2v0.2h-0.2v0.2l-0.2,0.2h-0.2v0.2h-0.2v0.2h-0.4v0.2l-0.2,0.2h-0.2v0.2h-0.4v0.2h-0.2v0.2h-0.2v0.2H25l-0.2,0.2v0.2h-0.2
	l-0.2,0.2v0.2h-0.2v0.4H24v0.2h-0.2v0.4h-0.2l-0.2,0.2v0.4h-0.2v0.2h-0.2v0.4h-0.2v0.2h-0.2v0.4h-0.2v0.6H22v0.5h-0.2v0.4h-0.2v0.6
	h-0.2v0.2h-0.2v0.4H21v0.2h-0.2v0.4l-0.2,0.2h-0.2v0.2h-0.2l-0.2,0.2v0.2h-0.2v0.4h-0.2v0.2h-0.2l-0.2,0.2v0.2h-0.2v0.4l-0.2,0.2
	h-0.2v0.2h-0.2v0.2H18v0.4h-0.2l-0.2,0.2v0.2h-0.2l-0.2,0.2v0.2h-0.2v0.2h-0.2v0.4l-0.2,0.2h-0.2v0.4h-0.2v0.4h-0.2v0.5h-0.2v0.4
	h-0.2v0.4h-0.2v0.4H15v0.4h-0.2v0.4h-0.2v0.4h-0.2v0.7h-0.2v2.2h0.2v0.6h0.2v2.2h-0.2l-0.2,0.2v0.5h-0.2l-0.2,0.2v0.2h-0.2v0.2h-0.2
	v0.2l-0.2,0.2h-0.2v0.2h-0.2v0.2h-0.2l-0.2,0.2v0.2H12l-0.2,0.2v0.2h-0.2v0.2h-0.2v0.2l-0.2,0.2h-0.2v0.2h-0.2v0.2h-0.2l-0.2,0.2
	v0.2h-0.2v0.2H9.8v0.2H9.7v0.4H9.4v0.2l-0.2,0.2H9v0.2L8.8,130H8.6v0.4H8.4v0.2H8.2v0.4H7.9v0.4H7.7v0.7H7.5v0.6H7.3v0.7H7.1v0.4
	H6.9v0.7H6.7v0.4H6.4v0.2H6.2v0.6H6v0.4H5.8v0.5H5.6v0.4l-0.2,0.2H5.2v0.4H5v0.5H4.7v0.2H4.5v0.2H4.3v0.4H4.1l-0.2,0.2v0.2H3.7v0.4
	H3.5v0.2H3.2v0.2H3v0.4H2.8v0.2H2.6v0.4H2.4v0.2H2.2L2,141.7v0.4H1.7v0.2l-0.2,0.2H1.3v0.4H1.1v0.5H0.9v0.4H0.7v2.5h0.2v0.7h0.2v0.4
	h0.2v0.4h0.2v0.5l0.2,0.2H2v0.4h0.2v0.2h0.2v0.4l0.2,0.2h0.2v0.2H3v0.4h0.2v0.2h0.2l0.2,0.2v0.4h0.2v0.2h0.2v0.4h0.2v0.2h0.2v0.4
	h0.2v0.2H5v0.4h0.2v0.2h0.2v0.4h0.2v0.2h0.2l0.2,0.2v0.2h0.2l0.2,0.2v0.2h0.2v0.2h0.2v0.5l0.2,0.2h0.2v0.4h0.2v0.4h0.2v0.5h0.2v0.4
	h0.2v0.4h0.2v0.4l0.2,0.2h0.2v0.2H9v0.4h0.2v0.2l0.2,0.2h0.2v0.2l0.2,0.2h0.2v0.5h0.2l0.2,0.2v0.4h0.2v0.4h0.2v0.2h0.2v0.4h0.2v0.4
	h0.2v0.4h0.2v0.4H12v0.2h0.2v0.4h0.2v0.2h0.2l0.2,0.2v0.4h0.2v0.2l0.2,0.2h0.2v0.5h0.2l0.2,0.2v0.2h0.2l0.2,0.2v0.4h0.2v0.2H15v0.2
	h0.2v0.2h0.2v0.2h0.4v0.2h0.4v0.2h0.7v0.2h0.8v0.2h0.7v0.2h0.4v0.2h0.4v0.2h0.4v0.2h0.4v0.2h0.2v0.2h0.2v0.2l0.2,0.2H21v0.4h0.2v0.5
	h0.2v0.4h0.2v1.7h0.2v1.9H22v0.7h0.2v0.4h0.2v0.4h0.2v0.4h0.2v0.2l0.2,0.2h0.2v0.2h0.2v0.2h0.2v0.2H24v0.2l0.2,0.2h0.2v0.2h0.4
	l0.2,0.2v0.2h0.4v0.2h0.5v0.2h0.6v0.2h0.7v0.2h0.4v0.2H28v0.2h0.2v0.2l0.2,0.2h0.2v0.2h0.2v0.4h0.2v0.4h0.2v0.4h0.2v0.7h0.2v0.8h0.2
	v0.7h0.2v0.4h0.2v0.4h0.2v0.4h0.2v0.2H31v0.4h0.2v0.2h0.2v0.4h0.2l0.2,0.2v0.4h0.2v0.5h0.2v0.6h0.2v0.7h0.2v0.7h0.2v0.4h0.2v0.4h0.2
	v0.4h0.2v0.2l0.2,0.2H34v0.4h0.2v0.4h0.2v0.2h0.2v0.4h0.2v0.7h0.2v0.6h0.2v0.7h0.2v0.4h0.2v0.4h0.2v0.4h0.2v0.2h0.2v0.2h0.2v0.4
	l0.2,0.2H37v0.2l0.2,0.2h0.2v0.2h0.2v0.2h0.2v0.2h0.2v0.2l0.2,0.2h0.2v0.4h0.2v0.2h0.2v0.4h0.2v0.2h0.2v0.4h0.2v0.4h0.2v0.4H40v0.4
	h0.2v0.4h0.2v0.2h0.2v0.4h0.2l0.2,0.2v0.2h0.2v0.4h0.2v0.2l0.2,0.2h0.2v0.4h0.2v0.4h0.2v0.5h0.2v0.4h0.2v0.4H43v0.4h0.2v0.7h0.2v0.4
	h0.2v0.4h0.2v0.4H44v0.2h0.2v0.4l0.2,0.2h0.2v0.2h0.2v0.4h0.2v0.2h0.2v0.2h0.4v0.2l0.2,0.2h0.5v0.2h0.4v0.2h0.4v0.2h0.6v0.2h0.5v0.2
	h0.4v0.2h0.4v0.2h0.7v0.2h0.4v0.2h0.6v0.2h0.7v0.2h2.2v0.2h1v0.2h0.5l0.2,0.2v0.2h0.2l0.2,0.2v1.7h-0.2v0.4h-0.2v0.4h-0.2v0.7H55
	v1.7h0.2v0.4h0.2v0.4h0.2v0.4h0.2v0.5H56v0.6h0.2v0.4h0.2v0.7h0.2v0.7h0.2v0.4h0.2v0.4h0.2v0.4h0.2v0.4h0.2v0.2H58l0.2,0.2v0.5h0.2
	v0.2h0.2v0.2h0.2v0.4H59l0.2,0.2v0.4h0.2v0.2h0.2v0.4h0.2v0.2h0.2v0.4h0.2v0.4h0.2v0.2h0.2v0.6H61v0.4h0.2v0.4h0.2v0.5l0.2,0.2h0.2
	v0.4H62v0.2h0.2v0.4h0.2v0.2l0.2,0.2h0.2v0.2h0.2v0.4h0.2l0.2,0.2v0.4h0.2v0.2H64v0.2h0.2v0.4h0.2l0.2,0.2v0.2h0.2l0.2,0.2v0.4h0.2
	v0.2h0.2v0.2l0.2,0.2h0.2v0.2l0.2,0.2h0.2v0.2l0.2,0.2h0.2v0.2h0.2v0.2h0.2v0.2h0.2v0.2l0.2,0.2h0.2v0.4H68v0.2h0.2l0.2,0.2v0.5h0.2
	v0.4h0.2v0.4h0.2v0.4h0.2v0.4h0.2v0.2h0.2v0.4l0.2,0.2h0.2v0.4h0.2v0.2h0.2v0.4h0.2v0.2l0.2,0.2h0.2v0.4h0.2v0.2h0.2v0.4h0.2v0.4
	h0.2v0.4h0.2v0.4h0.2v0.5h0.2v0.4l0.2,0.2h0.2v0.4h0.2v0.2h0.2v0.2l0.2,0.2H74v0.2h0.2l0.2,0.2v0.2h0.2l0.2,0.2v0.2h0.2v0.4h0.2v0.2
	h0.2v0.4l0.2,0.2h0.2v0.4h0.2v0.5l0.2,0.2h0.2v0.4h0.2v0.4H77v0.4h0.2v0.5h0.2v0.4h0.2v0.8h0.2v0.7h0.2v0.6h0.2v0.7h0.2v0.4h0.2v0.2
	h0.2v0.4l0.2,0.2h0.2v0.2h0.2l0.2,0.2v0.2H80v0.2l0.2,0.2h0.2v0.4h0.2v0.2h0.2v0.2h0.2v0.2h0.2v0.2h0.2v0.4l0.2,0.2h0.2v0.4h0.2v0.4
	h0.2v0.5h0.2v0.6h0.2v0.4H83v0.5h0.2v0.4h0.2v0.4h0.2v0.4h0.2l0.2,0.2v0.5h0.2v0.4h0.2v0.4h0.2v0.8h0.2v5.6h-0.2v0.6h-0.2v0.7h-0.2
	v0.4H84v0.4h-0.2v0.4h-0.2v0.7h-0.2v0.8h-0.2v1.3H83v1.1h-0.2v0.8h-0.2v1.1h-0.2v4.3h-0.2v1.1h-0.2v0.6h-0.2v0.4h-0.2v0.5h-0.2v0.6
	h-0.2v0.4h-0.2v0.9h-0.2v6.8h-0.2v2.3h-0.2v1.1H80v0.8h-0.2v1.7h-0.2v2.2h-0.2v0.7h-0.2v0.6h-0.2v0.4h-0.2v0.5h-0.2v0.4h-0.2v0.6
	h-0.2v1.1h-0.2v10.7h-0.2v1.1h-0.2v1.1h-0.2v1.1H77v1.7h-0.2v1.1h-0.2v0.4h-0.2v0.7h-0.2v0.4h-0.2v0.4h-0.2v0.7h-0.2v0.6h-0.2v2.6
	h-0.2v2.3h-0.2v0.9h-0.2v1h-0.2v1.7h-0.2v1.9H74v0.8h-0.2v0.4h-0.2v0.4h-0.2v0.7h-0.2v0.4h-0.2v0.7h-0.2v0.8h-0.2v1.9h-0.2v1.1h-0.2
	v0.8h-0.2v1.1h-0.2v1.3h-0.2v0.7h-0.2v0.7H71v0.4h-0.2v0.4h-0.2v0.7h-0.2v0.4h-0.2v0.8h-0.2v21.6h0.2v0.7h0.2v0.4h0.2v0.4h0.2
	l0.2,0.2v0.2h0.2l0.2,0.2v0.2h0.4v0.2h0.4v0.2h0.5v0.2h0.8v0.2h0.7v0.2h0.6v0.2h0.4v0.2h0.4v0.2h0.5v0.2h0.4v0.2l0.2,0.2h0.4v0.2
	h0.5v0.2h0.4v0.2h0.6v0.2h1.5v0.2h123.3v-0.2h1.3v-0.2h0.4v-0.2h0.4v-0.2h0.2v-0.2l0.2-0.2h0.2v-0.2h0.2v-0.4h0.2v-0.7h0.2v-8.9h0.2
	v-2.2h0.2v-0.7h0.2v-0.6h0.2v-0.4h0.2v-0.5h0.2v-0.4h0.2v-0.6h0.2V364h0.2v-26.9h-0.2v-1.5h-0.2v-0.9h-0.2v-2.3h0.2v-0.8h0.2V330
	h0.2v-26.5h0.2v-1h0.2v-0.9h0.2v-1.3h0.2v-19.4h0.2V280h0.2v-0.7h0.2v-0.4h0.2v-0.4h0.2V278h0.2v-0.4h0.2V277h0.2v-0.4h0.2v-0.5h0.2
	v-0.6h0.2v-0.4h0.2v-0.5h0.2v-0.2h0.2V274h0.2v-0.2h0.2l0.2-0.2v-0.2h0.2l0.2-0.2v-0.2h0.2v-0.2h0.4v-0.2h0.2v-0.2l0.2-0.2h0.4v-0.2
	h0.2l0.2-0.2v-0.2h0.2v-0.2h0.2v-0.4l0.2-0.2h0.2v-0.2l0.2-0.2h0.2v-0.4h0.2v-0.2h0.2v-0.2l0.2-0.2h0.2v-0.4h0.2v-0.2l0.2-0.2h0.2
	V268l0.2-0.2h0.2v-0.2h0.2v-0.2h0.2v-0.2h0.2v-0.2l0.2-0.2h0.2v-0.2l0.2-0.2h0.2v-0.2h0.2v-0.2h0.2v-0.4l0.2-0.2h0.2v-0.4h0.2v-0.2
	h0.2v-0.7h0.2v-0.8h0.2v-1.9h0.2v-1.1h0.2v-0.4h0.2v-0.4h0.2V259l0.2-0.2h0.2v-0.2l0.2-0.2h0.2v-0.2l0.2-0.2h0.2v-0.2l0.2-0.2h0.2
	v-0.2h0.2v-0.2l0.2-0.2h0.2v-0.2l0.2-0.2h0.2v-0.2l0.2-0.2h0.2v-0.2h0.2v-0.2l0.2-0.2h0.2v-0.2l0.2-0.2h0.2v-0.2l0.2-0.2h0.2v-0.2
	l0.2-0.2h0.2v-0.2h0.2v-0.2l0.2-0.2h0.2v-0.2l0.2-0.2h0.2v-0.4h0.2v-0.2h0.2l0.2-0.2v-0.5h0.2v-0.2h0.2v-0.2h0.2v-0.4h0.2l0.2-0.2
	v-0.2h0.2v-0.2h0.2v-0.4h0.2v-0.2h0.2v-0.2l0.2-0.2h0.2V249l0.2-0.2h0.2v-0.2h0.2v-0.2h0.2l0.2-0.2v-0.2h0.2v-0.2h0.2v-0.2l0.2-0.2
	h0.2v-0.2h0.2v-0.4h0.2v-0.2h0.2V246h0.2v-0.4h0.2v-0.7h0.2v-0.6h0.2v-0.7h0.2v-0.8h0.2V242h0.2v-1.3h0.2V239h0.2v-0.9h0.2v-0.6h0.2
	v-0.4h0.2v-0.5h0.2l0.2-0.2V236h0.2v-0.4h0.2v-0.4h0.2v-0.5h0.2v-0.6h0.2v-0.8h0.2v-1.5h0.2v-1.3h0.2v-0.6h0.2v-0.5h0.2v-0.6h0.2
	v-0.4h0.2v-0.5h0.2v-0.6h0.2v-0.7h0.2v-0.8h0.2v-0.8h0.2V224h0.2v-1.3h0.2v-3.4h0.2v-0.8h0.2v-0.7h0.2v-0.4h0.2V217h0.2v-0.4h0.2
	v-0.7h0.2V215h0.2v-1.5h0.2V212h0.2v-0.8h0.2v-1.1h0.2V208h0.2v-1.7h0.2v-0.7h0.2v-0.4h0.2v-0.7h0.2v-0.6h0.2v-1.5h-0.2v-0.7h-0.2
	v-0.7h-0.2l-0.2-0.2v-0.4h-0.2V200h-0.2v-0.4h-0.2V199h-0.2v-0.7h-0.2v-2.8h0.2v-0.7h0.2v-0.4h0.2v-0.2h0.2v-0.4h0.2l0.2-0.2v-0.5
	h0.2l0.2-0.2v-0.4h0.2v-0.4h0.2v-0.4h0.2v-0.5h0.2v-0.6h0.2V190h0.2v-0.7h0.2v-0.8h0.2v-0.7h0.2v-0.6h0.2v-0.4h0.2v-0.5h0.2v-0.4
	h0.2v-0.4h0.2v-0.4h0.2l0.2-0.2v-0.5h0.2v-0.6h0.2v-0.4h0.2v-0.9h0.2v-4.3h0.2v-2.1h0.2v-0.7h0.2v-0.7h0.2v-0.4h0.2V174h0.2v-0.4
	h0.2v-0.7h0.2v-1.5h0.2v-1.1h-0.2v-1.3h-0.2v-0.7h-0.2l-0.2-0.2V168h-0.2v-0.2h-0.2v-0.2h-0.6v-0.2h-0.9v0.2h-0.6v0.2h-0.4v0.2h-0.2
	v0.2l-0.2,0.2h-0.5v0.2l-0.2,0.2h-0.2v0.2h-0.2v0.2h-0.4v0.2h-0.2v0.2h-0.2v0.2h-0.4v0.2l-0.2,0.2h-0.4v0.2h-0.4v0.2h-0.2v0.2h-0.4
	v0.2H243v0.2h-0.4v0.2h-0.4v0.2h-0.4v0.2h-0.2v-0.7h0.2v-0.7h0.2v-0.4h0.2v-0.4h0.2v-0.4h0.2v-0.4h0.2v-0.4h0.2v-0.4h0.2v-0.4h0.2
	v-0.5h0.2v-0.4h0.2l0.2-0.2v-0.2h0.2l0.2-0.2v-0.2h0.2v-0.2h0.4v-0.2h0.4v-0.2h0.2v-0.2h0.4V165h0.4l0.2-0.2v-0.2h0.2v-0.2h0.4v-0.2
	h0.2l0.2-0.2v-0.2h0.2v-0.2h0.2v-0.4h0.2l0.2-0.2v-0.2h0.2v-0.4h0.2v-0.4h0.2v-0.4h0.2V161h0.2v-0.4h0.2v-0.2h0.2v-0.4h0.2v-0.2h0.2
	v-0.4l0.2-0.2h0.2v-0.2h0.2v-0.2h0.2l0.2-0.2v-0.2h0.2l0.2-0.2v-0.2h0.2v-0.2h0.2v-0.2l0.2-0.2h0.2v-0.2h0.2v-0.2h0.2l0.2-0.2v-0.2
	h0.2v-0.2h0.2v-0.2l0.2-0.2h0.2v-0.2h0.2v-0.2h0.2l0.2-0.2v-0.2h0.2v-0.4l0.2-0.2h0.2v-0.2h0.2l0.2-0.2v-0.2h0.2v-0.2l0.2-0.2h0.2
	v-0.2l0.2-0.2h0.2v-0.2h0.2l0.2-0.2V152h0.2v-0.2l0.2-0.2h0.2v-0.2l0.2-0.2h0.2v-0.2h0.4v-0.2h0.2v-0.2l0.2-0.2h0.2v-0.2h0.2v-0.2
	h0.2l0.2-0.2v-0.2h0.2v-0.2h0.2V149l0.2-0.2h0.2v-0.2h0.2v-0.4h0.2v-0.2l0.2-0.2h0.2v-0.2h0.2v-0.4h0.2v-0.2h0.2v-0.2h0.2v-0.4h0.2
	V146h0.2v-0.4h0.2l0.2-0.2v-0.2h0.2l0.2-0.2v-0.2h0.2v-0.2h0.2l0.2-0.2v-0.2h0.2l0.2-0.2v-0.4h0.2v-0.2h0.2V143h0.2v-0.2h0.2v-0.2
	h0.2v-0.4h0.2l0.2-0.2v-0.4h0.2v-0.5h0.2v-0.4h0.2V140h0.2v-0.7h0.2v-0.8h0.2v-1.3h0.2v-1.9h-0.2v-1.1H268v-0.6h-0.2V133h-0.2v-0.4
	h-0.2v-0.2h-0.2v-0.4h-0.2l-0.2-0.2v-0.2h-0.2l-0.2-0.2V131h-0.2v-0.2h-0.2l-0.2-0.2v-0.2h-0.2l-0.2-0.2V130h-0.4v-0.2h-0.2v-0.2
	h-0.2l-0.2-0.2v-0.2h-0.2v-0.2l-0.2-0.2h-0.2v-0.2h-0.2V128h-0.2l-0.2-0.2v-0.2h-0.2v-0.4h-0.2V127l-0.2-0.2H262v-0.2h-0.2v-0.4
	h-0.2l-0.2-0.2v-0.2h-0.2v-0.2l-0.2-0.2h-0.2V125h-0.2l-0.2-0.2v-0.2h-0.2l-0.2-0.2v-0.2h-0.2V124l-0.2-0.2h-0.2v-0.2H259l-0.2-0.2
	v-0.2h-0.2l-0.2-0.2v-0.2h-0.2l-0.2-0.2v-0.2h-0.2V122l-0.2-0.2h-0.2v-0.2h-0.2l-0.2-0.2v-0.2h-0.2l-0.2-0.2v-0.2h-0.2v-0.2
	l-0.2-0.2h-0.2v-0.2h-0.2l-0.2-0.2v-0.4h-0.2v-0.2l-0.2-0.2h-0.2v-0.5l-0.2-0.2h-0.2V118h-0.2v-0.2h-0.2v-0.4h-0.2v-0.2l-0.2-0.2
	h-0.2v-0.4h-0.2v-0.2h-0.2l-0.2-0.2v-0.2h-0.2v-0.2h-0.2v-0.2H252v-0.2h-0.2l-0.2-0.2v-0.2h-0.2v-0.4h-0.2v-0.4h-0.2l-0.2-0.2v-0.5
	h-0.2v-0.2h-0.2v-0.4h-0.2v-0.4h-0.2V112h-0.2v-0.2h-0.2v-0.4l-0.2-0.2H249v-0.2h-0.2v-0.4l-0.2-0.2h-0.2v-0.2h-0.2v-0.2h-0.2
	l-0.2-0.2v-0.2h-0.4v-0.2h-0.2V109h-0.2v-0.2h-0.4v-0.2h-0.2v-0.2h-0.4v-0.2h-0.2v-0.2h-0.2v-0.2h-0.4v-0.2h-0.4v-0.2h-0.4v-0.2H242
	v0.2h-0.5l-0.2,0.2v0.2h-0.4v0.2h-0.2v0.2l-0.2,0.2h-0.2v0.2H240v0.2l-0.2,0.2h-0.2v0.2l-0.2,0.2h-0.2v0.2l-0.2,0.2h-0.2v0.2h-0.2
	v0.2h-0.2v0.4h-0.2l-0.2,0.2v0.4h-0.2v0.4h-0.2v0.5h-0.2v0.4h-0.2v0.4h-0.2v0.2h-0.2v0.5l-0.2,0.2h-0.2v0.4H236v0.2h-0.2l-0.2,0.2
	v0.2h-0.2l-0.2,0.2v0.2h-0.2v0.2h-0.2l-0.2,0.2v0.2h-0.2l-0.2,0.2v0.2h-0.2l-0.2,0.2v0.2h-0.2v0.2h-0.2v0.5l-0.2,0.2h-0.2v0.2
	l-0.2,0.2h-0.2v0.4h-0.2v0.2h-0.2v0.4h-0.2v0.2h-0.2v0.2h-0.2v0.4h-0.2v0.2h-0.2l-0.2,0.2v0.2h-0.2v0.2l-0.2,0.2H230v0.2h-0.2
	l-0.2,0.2v0.2h-0.2l-0.2,0.2v0.2h-0.2v0.2l-0.2,0.2h-0.2v0.2h-0.2v0.4h-0.2v0.2h-0.2v0.2l-0.2,0.2h-0.2v0.5l-0.2,0.2H227v0.4h-0.2
	v0.4h-0.2v0.5h-0.2v0.4h-0.2v0.4h-0.2l-0.2,0.2v0.4h-0.2v0.2h-0.2v0.2h-0.2l-0.2,0.2v0.2h-0.2v0.2h-0.2v0.4h-0.2v0.2H224v0.2
	l-0.2,0.2h-0.2v0.2l-0.2,0.2h-0.2v0.2l-0.2,0.2h-0.2v0.2h-0.2l-0.2,0.2v0.2h-0.2v0.2l-0.2,0.2h-0.2v0.2l-0.2,0.2h-0.2v0.2H221
	l-0.2,0.2v0.2h-0.2l-0.2,0.2v0.2h-0.2v0.2l-0.2,0.2h-0.2v0.2l-0.2,0.2h-0.2v0.2h-0.2v0.4h-0.2v0.2h-0.2l-0.2,0.2v0.2h-0.2l-0.2,0.2
	v0.2h-0.2v0.2h-0.2v0.2l-0.2,0.2h-0.2v0.2H217v0.2h-0.2l-0.2,0.2v0.2h-0.2v0.4l-0.2,0.2h-0.2v0.2h-0.2v0.2h-0.2v0.4h-0.2l-0.2,0.2
	v0.2h-0.2l-0.2,0.2v0.2h-0.2v0.2h-0.2v0.2H214v0.2h-0.2l-0.2,0.2v0.2h-0.4v0.2h-0.2v0.2l-0.2,0.2h-0.2v0.2H212v0.2h-0.2l-0.2,0.2
	v0.4h-0.2v0.2h-0.2v0.4H211v0.4h-0.2v0.4h-0.2v0.7h-0.2v0.7h-0.2v0.4h-0.2v0.4l-0.2,0.2h-0.2v0.4h-0.2v0.2H209v0.2h-0.2l-0.2,0.2
	v0.2h-0.2l-0.2,0.2v0.2H208l-0.2,0.2v0.2h-0.2v0.2l-0.2,0.2h-0.2v0.2h-0.2l-0.2,0.2v0.2h-0.2v0.4l-0.2,0.2H206v0.2h-0.2v0.2h-0.2
	v0.4h-0.2l-0.2,0.2v0.4H205v0.2l-0.2,0.2h-0.2v0.5l-0.2,0.2h-0.2v0.2l-0.2,0.2h-0.2v0.2h-0.2l-0.2,0.2v0.2H203v0.2l-0.2,0.2h-0.2
	v0.2l-0.2,0.2h-0.2v0.2H202l-0.2,0.2v0.2h-0.2l-0.2,0.2v0.2h-0.2v0.4h-0.2v0.2h-0.2v0.4l-0.2,0.2h-0.2v0.5H200v0.4h-0.2v0.4h-0.2
	v0.4h-0.2v0.4h-0.2v0.4H199v0.2h-0.2v0.2h-0.2v0.4h-0.2v0.2h-0.2v0.2l-0.2,0.2h-0.2v0.2l-0.2,0.2h-0.2v0.2l-0.2,0.2h-0.2v0.2h-0.2
	l-0.2,0.2v0.2H196v0.2h-0.2l-0.2,0.2v0.2h-0.2v0.2h-0.2v0.2l-0.2,0.2h-0.2v0.2h-0.2v0.2h-0.2v0.4h-0.2v0.4h-0.2l-0.2,0.2v0.4h-0.2
	v0.2h-0.2v0.4H193v0.2h-0.2l-0.2,0.2v0.4h-0.2v0.2l-0.2,0.2h-0.2v0.5l-0.2,0.2h-0.2v0.4h-0.2v0.2h-0.2v0.4h-0.2v0.2l-0.2,0.2h-0.2
	v0.2l-0.2,0.2H190v0.2h-0.2v0.2h-0.4v0.2l-0.2,0.2h-0.4v0.2h-0.2v0.2l-0.2,0.2h-0.2v0.2h-0.2l-0.2,0.2v0.2h-0.2l-0.2,0.2v0.5H187
	v0.4h-0.2v1h-0.2v0.9h0.2v0.8h0.2v0.7h0.2l0.2,0.2v0.4h0.2v0.2h0.2v0.4h0.2v0.2h0.2l0.2,0.2v0.2h0.2l0.2,0.2v0.2h0.2l0.2,0.2v0.2
	h0.2v0.2l0.2,0.2h0.2v0.2h0.2l0.2,0.2v0.2h0.2l0.2,0.2v0.2h0.2l0.2,0.2v0.2h0.2v0.2h0.2l0.2,0.2v0.2h0.2l0.2,0.2v0.2h0.2l0.2,0.2
	v0.2h0.2v0.2l0.2,0.2h0.2v0.2h0.2l0.2,0.2v0.2h0.2l0.2,0.2v0.2h0.2l0.2,0.2v0.2h0.2v0.2l0.2,0.2h0.2v0.2h0.2l0.2,0.2v0.2h0.2
	l0.2,0.2v0.2h0.2l0.2,0.2v0.2h0.2v0.2h0.2l0.2,0.2v0.2h0.2l0.2,0.2v0.2h0.2l0.2,0.2v0.2h0.2v0.2l0.2,0.2h0.2v0.2h0.2l0.2,0.2v0.2
	h0.2l0.2,0.2v0.2h0.2l0.2,0.2v0.2h0.2v0.2h0.2l0.2,0.2v0.2h0.2l0.2,0.2v0.2h0.2l0.2,0.2v0.2h0.2v0.2l0.2,0.2h0.2v0.2h0.2l0.2,0.2
	v0.2h0.2l0.2,0.2v0.2h0.2l0.2,0.2v0.2h0.2v0.2h0.2v0.2h0.4v0.2l0.2,0.2h0.2v0.2h0.4v0.2h0.4v0.2h0.7v0.2h0.6v0.2h0.7v0.2h2.8v-0.2
	h0.4v-0.2h0.5v-0.2h0.2v-0.2h0.4v-0.2h0.2v-0.2l0.2-0.2h0.2v-0.2h0.2l0.2-0.2v-0.2h0.2v-0.2l0.2-0.2h0.2v-0.2l0.2-0.2h0.2v-0.2
	l0.2-0.2h0.2v-0.2h0.2v-0.2h0.4v-0.2h0.2v-0.2h0.2l0.2-0.2v-0.2h0.5l0.2-0.2v-0.2h0.2v-0.2h0.4V190h0.2v-0.2h0.4v-0.2h0.2v-0.2h0.2
	l0.2-0.2v-0.2h0.2l0.2-0.2v-0.2h0.2l0.2-0.2v-0.2h0.2v-0.2h0.2l0.2-0.2v-0.2h0.2l0.2-0.2V187h0.2v-0.2h0.4v-0.2h0.2v-0.2h0.2v-0.2
	h0.2v-0.2h0.4v-0.2h0.4v-0.2l0.2-0.2h0.5v-0.2h0.4v-0.2h0.4v-0.2h0.4v-0.2h0.4v-0.2h0.2V184l0.2-0.2h0.4v-0.2h0.2l0.2-0.2v-0.2h0.2
	V183h0.2v-0.2h0.2v-0.2h0.2l0.2-0.2v-0.2h0.2l0.2-0.2v-0.2h0.2l0.2-0.2v-0.2h0.2V181h0.4v-0.2h0.2v-0.2h0.4v-0.2h0.4v-0.2h0.7V180h1
	v-0.2h1.1v-0.2h0.7v-0.2h0.2v-0.4h0.2v-0.2h0.2l0.2-0.2v-0.4h0.2v-0.2h0.2v-0.2h0.2v-0.4h0.2v-0.4h0.2v-0.2h0.2v-0.4h0.2v-0.2h0.2
	v-0.4h0.2v-0.2h0.2l0.2-0.2v-0.2h0.4v-0.2h0.2v-0.2h0.4v-0.2h0.4V174h0.7v-0.2h0.7v-0.2h0.4v-0.2h0.8v0.4H240v0.4h-0.2v0.5h-0.2v0.4
	h-0.2v0.4h-0.2l-0.2,0.2v0.5h-0.2l-0.2,0.2v0.2h-0.2v0.2h-0.2v0.2l-0.2,0.2h-0.2v0.2h-0.4l-0.2,0.2v0.2h-0.5v0.2l-0.2,0.2h-0.2v0.2
	h-0.4v0.2h-0.4v0.2l-0.2,0.2h-0.5v0.2h-0.6v0.2h-0.4v0.2h-0.5v0.2l-0.2,0.2h-0.2v0.4h-0.2v0.2h-0.2v0.7h-0.2v0.4h-0.2l-0.2,0.2v0.4
	h-0.2v0.2h-0.2v0.2l-0.2,0.2h-0.2v0.2h-0.4v0.2H230v0.2h-0.4v0.2h-0.4v0.2h-0.4v0.2h-0.4v0.2h-0.2v0.2h-0.2l-0.2,0.2v0.2h-0.2
	l-0.2,0.2v0.2H227l-0.2,0.2v0.2h-0.2v0.4h-0.2v0.2h-0.2v0.4h-0.2l-0.2,0.2v0.4h-0.2v0.2h-0.2v0.2h-0.2l-0.2,0.2v0.2h-0.2v0.2h-0.4
	v0.2H224v0.2h-0.4v0.2h-0.4l-0.2,0.2v0.2h-0.5v0.2l-0.2,0.2h-0.4v0.2h-0.2v0.2h-0.4v0.2H221l-0.2,0.2v0.2h-0.4v0.2h-0.2l-0.2,0.2
	v0.2h-0.2l-0.2,0.2v0.2h-0.2v0.2h-0.2v0.4h-0.2v0.2h-0.2v0.2l-0.2,0.2h-0.2v0.2l-0.2,0.2h-0.5v0.2l-0.2,0.2h-0.2v0.2h-0.4v0.2
	l-0.2,0.2h-0.4v0.2h-0.5v0.2h-0.4v0.2h-0.4v0.2h-0.4v0.2H214v0.2h-0.2v0.2h-0.4v0.2l-0.2,0.2h-0.2v0.2h-0.4v0.2h-0.2v0.4H212v0.2
	h-0.2v0.2l-0.2,0.2h-0.2v0.4h-0.2v0.2H211v0.4h-0.2v0.4h-0.2v0.4h-0.2v0.2l-0.2,0.2h-0.2v0.2l-0.2,0.2h-0.4v0.2h-1.5v-0.2h-0.2
	l-0.2-0.2v-0.2h-0.2v-0.2h-0.2v-0.2h-0.2v-0.4h-0.2v-0.4h-0.2v-0.4H206v-0.2h-0.2v-0.4h-0.2v-0.4h-0.2v-0.2l-0.2-0.2H205v-0.2
	l-0.2-0.2h-0.2v-0.2l-0.2-0.2h-0.2v-0.2h-0.2v-0.2h-0.5v-0.2H203v-0.2h-0.4V196h-0.4v-0.2h-0.4v-0.2h-0.4v-0.2h-0.2l-0.2-0.2v-0.2
	h-0.2v-0.2l-0.2-0.2h-0.2v-0.2H200v-0.4l-0.2-0.2h-0.2v-0.2h-0.2v-0.2h-0.2L199,193v-0.4h-0.2v-0.2h-0.2l-0.2-0.2v-0.2h-0.2v-0.2
	h-0.4v-0.2h-0.2v-0.2h-0.2v-0.2h-0.4v-0.2h-0.4v-0.2H196v-0.2h-0.4v-0.2h-0.2V190h-0.4v-0.2h-0.2l-0.2-0.2v-0.2h-0.2v-0.4l-0.2-0.2
	h-0.2v-0.4h-0.2v-0.5h-0.2v-0.4h-0.2l-0.2-0.2v-0.4h-0.2v-0.2h-0.2v-0.4h-0.2v-0.2l-0.2-0.2h-0.2v-0.2l-0.2-0.2h-0.5v-0.2l-0.2-0.2
	h-0.2v-0.2h-0.2v-0.2h-0.4v-0.2H190V184h-0.4v-0.2h-0.2v-0.2h-0.4v-0.2h-0.4v-0.2h-0.4V183h-0.2v-0.2h-0.2v-0.2h-0.4v-0.2H187v-0.2
	l-0.2-0.2h-0.2v-0.2h-0.2l-0.2-0.2v-0.2h-0.2V181l-0.2-0.2h-0.2v-0.2l-0.2-0.2h-0.2v-0.2l-0.2-0.2h-0.2v-0.2h-0.2l-0.2-0.2v-0.2
	h-0.4v-0.2h-0.2l-0.2-0.2v-0.2h-0.2v-0.2h-0.2v-0.2h-0.4l-0.2-0.2v-0.2h-0.4v-0.2h-0.2v-0.2h-0.4v-0.2H181V177h-0.4v-0.2l-0.2-0.2
	h-0.2v-0.2l-0.2-0.2h-0.5v-0.2h-0.2v-0.2h-0.2l-0.2-0.2v-0.2h-0.2l-0.2-0.2v-0.2h-0.2l-0.2-0.2v-0.2h-0.2v-0.2h-0.4V174h-0.2v-0.2
	l-0.2-0.2h-0.4v-0.2h-0.2v-0.2h-0.4v-0.2h-0.4v-0.2h-0.7v-0.2h-0.7v-0.2h-0.8v-0.2h-1.3v-0.2h-1.3v-0.2h-0.6v-0.2h-0.4v-0.2h-0.4
	V171h-0.5v-0.2h-0.6v-0.2h-0.4v-0.2h-0.9v-0.2h-2.3v-0.2h-1.3v-0.2h-0.8v-0.2h-1.1v-0.2h-0.9v-0.2h-0.8v-0.2h-0.4v-0.2h-0.4v-0.2
	h-0.4v-0.2H158V168h-0.4v-0.2h-0.4v-0.2h-0.5v-0.2h-0.6v-0.2h-0.7v-0.2h-0.7v-0.2h-1.3v-0.2h-1.3v-0.2h-0.9v-0.2h-0.4v-0.2h-0.4
	v-0.2h-0.4v-0.2h-0.4v-0.2H149V165h-0.8v-0.2h-1.5v-0.2h-1.3v-0.2h-0.9v-0.2h-1V164H142v-0.2h-0.9v-0.2h-0.6v-0.2H140v-0.2h-0.5
	v-0.2h-0.4v-0.2h-0.4v-0.2h-0.8v-0.2h-1.5V162H130v-0.2h-1.1v-0.2H128v-0.2h-1.5v-0.2h-2.3V161h-0.8v-0.2h-0.8v-0.2h-0.9v-0.2H121
	v0.2h-0.7v0.2h-0.2v0.2l-0.2,0.2h-0.2v0.7h-0.2v0.8h0.2v1.1h0.2v0.4h0.2v0.4h0.2v0.4h0.2v0.2h0.2v0.4h0.2v0.2l0.2,0.2h0.2v0.2
	l0.2,0.2h0.2v0.2l0.2,0.2h0.2v0.2h0.2l0.2,0.2v0.2h0.2v0.2l0.2,0.2h0.2v0.2l0.2,0.2h0.2v0.2l0.2,0.2h0.2v0.5h0.2l0.2,0.2v0.2h0.2
	v0.4l0.2,0.2h0.2v0.4h0.2v0.2h0.2v0.4h0.2v0.4h0.2v0.2h0.2l0.2,0.2v0.5h0.2l0.2,0.2v0.4h0.2v0.2h0.2v0.4h0.2v0.4h0.2v0.4h0.2v0.4
	h0.2v0.2h0.2v0.4h0.2v0.2l0.2,0.2h0.2v0.2l0.2,0.2h0.2v0.2h0.2l0.2,0.2v0.2h0.2l0.2,0.2v0.2h0.2v0.4h0.2v0.2h0.2v0.2h0.2v0.2
	l0.2,0.2h0.2v0.2h0.2v0.2h0.2l0.2,0.2v0.2h0.2l0.2,0.2v0.2h0.2v0.2h0.2v0.2h0.2v0.4h0.2v0.2h0.2v0.4h0.2v0.4l0.2,0.2h0.2v0.5h0.2
	v0.4l0.2,0.2h0.2v0.4h0.2v0.4h0.2v0.2h0.2v0.4h0.2v0.4h0.2v0.2h0.2v0.2h0.2v0.2l0.2,0.2h0.2v0.2h0.2v0.2h0.4v0.2h0.2v0.2h0.4v0.2
	h0.2v0.2h0.4l0.2,0.2v0.2h0.2v0.2l0.2,0.2h0.2v0.2h0.2l0.2,0.2v0.2h0.2v0.4l0.2,0.2h0.2v0.5h0.2v0.4h0.2v0.4h0.2v0.4h0.2v0.2h0.2
	l0.2,0.2v0.4h0.2v0.2l0.2,0.2h0.2v0.2l0.2,0.2h0.2v0.2h0.2v0.2h0.4l0.2,0.2v0.2h0.2l0.2,0.2v0.2h0.2l0.2,0.2v0.2h0.2v0.2h0.2
	l0.2,0.2v0.2h0.2l0.2,0.2v0.2h0.2l0.2,0.2v0.2h0.2v0.2h0.2v0.2h0.2v0.2h0.2l0.2,0.2v0.2h0.2l0.2,0.2v0.2h0.2l0.2,0.2v0.2h0.2v0.2
	h0.2l0.2,0.2v0.2h0.2l0.2,0.2v0.2h0.2l0.2,0.2v0.4h0.2v0.2h0.2v0.2h0.2v0.4h0.2l0.2,0.2v0.4h0.2v0.4h0.2v0.2h0.2v0.4h0.2v0.2h0.2
	v0.4h0.2l0.2,0.2v0.2h0.2v0.2h0.2v0.4h0.2l0.2,0.2v0.2h0.2v0.2h0.2v0.4h0.2v0.5h0.2v0.6h0.2v1.3h0.2v1h0.2v0.9h0.2v0.4h0.2v0.4h0.2
	v0.2h0.2v0.4h0.2v0.4h0.2v0.4h0.2v0.4h0.2v0.4h0.2v0.7h0.2v0.4h0.2v0.7h0.2v0.4h0.2l0.2,0.2v0.4h0.2v0.5l0.2,0.2h0.2v0.4h0.2v0.4
	h0.2v0.5h0.2v0.4h0.2v0.6h0.2v0.9h0.2v0.6h0.2v0.8h0.2v0.5h0.2v0.6h0.2v0.4h0.2v0.2h0.2v0.4h0.2v0.4h0.2v0.4h0.2v0.2h0.2v0.7h0.2
	v0.6h0.2v1.1h0.2v1.7h0.2v0.8h0.2v0.7h0.2v0.4h0.2l0.2,0.2v0.4h0.2v0.2h0.2v0.4h0.2v0.2h0.2v0.4h0.2v0.4h0.2v0.8h0.2v1.5h0.2v1.1
	h0.2v0.4h0.2v0.4h0.2v0.4h0.2v0.4h0.2v0.4h0.2v0.2h0.2v0.4h0.2v0.7h0.2v0.4h0.2v0.7h0.2v0.4h0.2v0.4h0.2v0.4h0.2v0.4h0.2v0.4h0.2
	v0.2h0.2v0.4h0.2v0.4h0.2v0.8h0.2v1.3h0.2v1.3h0.2v0.8h0.2v1.1h0.2v1.5h0.2v1.1h0.2v0.7h0.2v0.4h0.2v0.4l0.2,0.2h0.2v0.2l0.2,0.2
	h0.2v0.2h0.2v0.2h0.2v0.2h0.2v0.4h0.2v0.2h0.2l0.2,0.2v0.2h0.2l0.2,0.2v0.2h0.2v0.2l0.2,0.2h0.2v0.2h0.2l0.2,0.2v0.2h0.2l0.2,0.2
	v0.2h0.2v0.2l0.2,0.2h0.2v0.2l0.2,0.2h0.2v0.2h0.4v0.2h0.2v0.2l0.2,0.2h0.4v0.2h0.5v0.2h0.4v0.2h0.4v0.2h0.6v0.2h0.7v0.2h0.4v0.2
	h0.2v0.2h0.4v0.2h0.2l0.2,0.2v0.2h0.2l0.2,0.2v1.3l-0.2,0.2h-0.2v0.2l-0.2,0.2h-0.2v0.2H181l-0.2,0.2v0.2h-0.2v0.2h-0.4l-0.2,0.2
	v0.2h-0.2v0.2h-0.4v0.2h-0.2l-0.2,0.2v0.2h-0.4v0.2h-0.2v0.2h-0.2v0.2h-0.5l-0.2,0.2v0.2h-0.2v0.2h-0.4v0.2l-0.2,0.2h-0.5v0.2h-0.4
	v0.2h-0.4v0.2h-0.4v0.2h-0.7v0.2h-0.6v0.2h-0.7v0.2h-0.8v0.2h-0.7v0.2h-0.7v0.2h-0.4v0.2h-0.4l-0.2,0.2v0.2h-0.2l-0.2,0.2v0.2h-0.2
	v0.2h-0.2v0.2h-0.2v0.4h-0.2v0.4h-0.2v0.4H168v0.9h-0.2v47.4h-0.2v3.4h-0.2v6h0.2v1.7h0.2v0.7h0.2v0.4h0.2v0.4h0.2v0.5h0.2v0.4h0.2
	v0.4h0.2v0.6h0.2v0.7h0.2v9.4h-0.2v0.8h-0.2v0.4h-0.2v0.4h-0.2v0.2h-0.4v0.2h-0.7v-0.2h-0.2v-0.4h-0.2v-0.8h-0.2v-3.2h-0.2v-1.3
	h-0.2v-0.9h-0.2v-1h-0.2v-6.7h0.2v-9.4h-0.2v-0.9h-0.2v-0.6h-0.2v-0.4h-0.2V321h-0.2v-0.4H165v-0.4h-0.2v-0.4h-0.2v-3.2h0.2v-0.7
	h-0.2v-1.7h-0.2v-2.8h-0.2v-7.7h-0.2v-0.8h-0.2v-1.1h-0.2v-1.5h-0.2v-9.4h-0.2V290h-0.2v-0.7h-0.2V289h-0.2v-0.4h-0.2v-0.4H162v-0.7
	h-0.2v-0.8h-0.2v-3.4h-0.2v-1.3h-0.2v-1.1H161v-1.1h-0.2v-2.3h-0.2v-1.3h-0.2v-0.6h-0.2v-0.7h-0.2v-0.4h-0.2V274h-0.2v-0.4h-0.2
	v-0.7h-0.2v-2.2h-0.2v-5.5h-0.2v-0.7h-0.2v-0.4h-0.2v-0.2l-0.2-0.2h-0.2v-0.2l-0.2-0.2h-0.4v-0.2h-0.5v-0.2h-3.4v0.2h-0.8v0.2h-1.1
	v0.2h-7.9v-0.2h-1.1v-0.2h-0.9v-0.2h-1v-0.2h-1.3v-0.2h-0.6v-0.2h-0.4V262h-0.2v-0.2h0.2v-0.4h0.2v-0.2h0.2V261h0.4v-0.2h0.4v-0.2
	h0.4v-0.2h0.8v-0.2h1.5v-0.2h1.1v-0.2h0.7v-0.2h0.4v-0.2h0.6V259h0.2v-0.2h0.4v-0.2h0.2v-0.2h0.4v-0.2l0.2-0.2h0.5v-0.2l0.2-0.2h0.2
	v-0.2h0.4v-0.2l0.2-0.2h0.4v-0.2h0.5l0.2-0.2v-0.2h0.4v-0.2h0.4v-0.2h0.5v-0.2l0.2-0.2h0.4v-0.2h0.2V255h0.4v-0.2h0.4v-0.2h0.2v-0.2
	h0.4v-0.2h0.4v-0.2h0.2v-0.2h0.2v-0.2h0.4v-0.2h0.2l0.2-0.2v-0.2h0.2l0.2-0.2v-0.2h0.2l0.2-0.2V252h0.2v-0.2h0.2l0.2-0.2v-0.2h0.2
	l0.2-0.2v-0.2h0.4v-0.2h0.2v-0.2h0.2v-0.2l0.2-0.2h0.4v-0.2h0.4v-0.2h0.7v-0.2h0.7v-0.2h0.4V249h0.6v-0.2h0.5v-0.2h0.2v-0.2h0.4
	v-0.2h0.2v-0.2l0.2-0.2h0.5v-0.2l0.2-0.2h0.2v-0.2h0.2v-0.2h0.2l0.2-0.2v-0.2h0.2l0.2-0.2V246h0.2v-0.2h0.2v-0.4h0.2v-0.2h0.2v-0.2
	h0.2v-0.4h0.2v-0.4h0.2v-0.4h0.2v-2.2h-0.2v-0.4h-0.2v-0.4H165l-0.2-0.2V240h-0.2l-0.2-0.2v-0.4h-0.2v-0.2h-0.2v-0.4h-0.2v-0.7h-0.2
	v-0.6h-0.2v-0.7h-0.2v-0.4h-0.2V236h-0.2v-0.4h-0.2v-0.2h-0.2v-0.4H162v-0.2l-0.2-0.2h-0.2v-0.2l-0.2-0.2h-0.2v-0.2l-0.2-0.2h-0.2
	v-0.2h-0.2l-0.2-0.2V233h-0.2v-0.4h-0.2v-0.2h-0.2l-0.2-0.2v-0.4h-0.2v-0.5h-0.2v-0.4h-0.2v-0.6h-0.2v-0.7h-0.2v-0.7h-0.2v-0.6H158
	v-0.7h-0.2V227h-0.2v-0.4h-0.2v-0.4h-0.2v-0.2h-0.2v-0.4h-0.2l-0.2-0.2v-0.2h-0.2l-0.2-0.2v-0.5h-0.2l-0.2-0.2V224h-0.2v-0.2h-0.2
	v-0.2l-0.2-0.2h-0.2v-0.2l-0.2-0.2h-0.2v-0.2h-0.2v-0.2h-0.2l-0.2-0.2v-0.2h-0.2v-0.2h-0.2v-0.4h-0.2v-0.2h-0.2v-0.4h-0.2v-0.4h-0.2
	v-0.2h-0.2v-0.4H152v-0.2h-0.2v-0.5h-0.2v-0.4h-0.2l-0.2-0.2V218h-0.2v-0.2h-0.2v-0.4h-0.2V217h-0.2v-0.2h-0.2v-0.4h-0.2l-0.2-0.2
	v-0.2h-0.2v-0.4h-0.2v-0.2H149l-0.2-0.2v-0.2h-0.2v-0.2h-0.2v-0.2l-0.2-0.2h-0.2V214h-0.2v-0.2h-0.2l-0.2-0.2v-0.2h-0.2l-0.2-0.2
	v-0.2h-0.2v-0.4h-0.2v-0.2l-0.2-0.2H146v-0.4h-0.2v-0.2h-0.2V211h-0.2v-0.4h-0.2v-0.2h-0.2v-0.4h-0.2v-0.4h-0.2l-0.2-0.2V209h-0.2
	v-0.4h-0.2v-0.2h-0.2V208l-0.2-0.2h-0.2v-0.4H143v-0.5h-0.2v-0.6h-0.2v-0.4h-0.2v-0.5h-0.2V205H142v-0.4h-0.2v-0.4h-0.2l-0.2-0.2
	v-0.2h-0.2v-0.4h-0.2V203h-0.2l-0.2-0.2v-0.2h-0.2l-0.2-0.2v-0.2h-0.2V202h-0.2l-0.2-0.2v-0.2h-0.2l-0.2-0.2v-0.4h-0.2v-0.2
	l-0.2-0.2h-0.2V200h-0.2v-0.4h-0.2V199h-0.2v-0.4h-0.2v-0.7h-0.2v-0.7H137v-0.4h-0.2v-0.4h-0.2V196h-0.2v-0.2h-0.2l-0.2-0.2v-0.2
	h-0.2l-0.2-0.2v-0.5h-0.2l-0.2-0.2v-0.2h-0.2l-0.2-0.2v-0.2h-0.2v-0.2h-0.2v-0.2H134v-0.2h-0.2l-0.2-0.2v-0.2h-0.2l-0.2-0.2v-0.2
	H133v-0.2h-0.2v-0.2l-0.2-0.2h-0.2v-0.2h-0.2v-0.2h-0.2l-0.2-0.2v-0.2h-0.2l-0.2-0.2v-0.2H131v-0.2h-0.2V190h-0.2v-0.2h-0.2v-0.4
	l-0.2-0.2H130v-0.4h-0.2v-0.7h-0.2v-0.7h-0.2v-0.6h-0.2v-0.5h-0.2v-0.4h-0.2v-0.4h-0.2l-0.2-0.2v-0.2H128l-0.2-0.2v-0.2h-0.2v-0.2
	h-0.2v-0.2H127V184h-0.4l-0.2-0.2v-0.2h-0.5v-0.2h-0.4v-0.2l-0.2-0.2H125v-0.2h-0.2v-0.2h-0.2v-0.4h-0.2v-0.6h-0.2v-0.7H124v-0.7
	h-0.2v-0.6h-0.2v-0.5l-0.2-0.2h-0.2v-0.2l-0.2-0.2h-0.2v-0.4h-0.2v-0.2h-0.2v-0.2H122l-0.2-0.2v-0.2h-0.2v-0.4l-0.2-0.2h-0.2v-0.4
	H121v-0.5h-0.2v-0.2h-0.2v-0.4h-0.2v-0.4h-0.2v-0.2h-0.2V174h-0.2v-0.2l-0.2-0.2h-0.2v-0.2l-0.2-0.2h-0.2v-0.2h-0.2v-0.4h-0.2v-0.2
	h-0.2l-0.2-0.2v-0.2h-0.2l-0.2-0.2v-0.2h-0.2v-0.2h-0.2V171h-0.2v-0.4h-0.2v-0.2h-0.2v-0.4h-0.2v-0.4l-0.2-0.2h-0.2v-0.5h-0.2v-0.4
	h-0.2v-0.2h-0.2v-0.4H115v-0.5h-0.2l-0.2-0.2v-0.4h-0.2v-0.4h-0.2v-0.7h-0.2v-0.4h-0.2v-0.4h-0.2v-0.7h-0.2l-0.2-0.2v-0.5h-0.2
	l-0.2-0.2v-0.4h-0.2v-0.2l-0.2-0.2H112v-0.2h-0.2V162l-0.2-0.2h-0.2v-0.2l-0.2-0.2h-0.2v-0.2l-0.2-0.2h-0.2v-0.2h-0.2v-0.4h-0.2
	v-0.2h-0.2v-0.4l-0.2-0.2h-0.2v-0.4h-0.2v-0.2H109v-0.4h-0.2V158h-0.2v-0.4h-0.2v-0.2h-0.2v-0.4h-0.2v-0.2l-0.2-0.2h-0.2v-0.2
	l-0.2-0.2h-0.2v-0.2h-0.2v-0.4h-0.2v-0.2h-0.2l-0.2-0.2v-0.2H106l-0.2-0.2v-0.2h-0.2l-0.2-0.2v-0.2h-0.2v-0.2h-0.2v-0.2h-0.4v-0.2
	l-0.2-0.2h-0.2v-0.2l-0.2-0.2h-0.2v-0.2h-0.4v-0.2h-0.4V152h-0.4v-0.2h-0.7v-0.2h-1.5v-0.2h-2.3v-0.2h-0.8v-0.2h-0.7v-0.2H96v-0.2
	h-0.4v-0.2h-0.4v-0.2h-0.5v-0.2h-0.4v-0.2h-0.4v-0.2h-0.4v-0.2H93V149h-0.7v-0.2h-1.1v-0.2h-0.8v-0.2h-0.6v-0.2h-0.5v-0.2h-0.4v-0.2
	h-0.4v-0.2l-0.2-0.2h-0.4v-0.2h-0.2v-0.2h-0.2v-0.2H87v-0.2l-0.2-0.2h-0.4V146h-0.5v-0.2h-0.4v-0.2h-0.4v-0.2h-0.6v-0.2h-0.7V145
	h-0.4v-0.2H83v-0.2h-0.5l-0.2-0.2v-0.2h-0.4v-0.2h-0.2v-0.2h-0.4l-0.2-0.2v-0.2h-0.5V143h-0.4l-0.2-0.2v-0.2h-0.4v-0.2h-0.5v-0.2
	l-0.2-0.2h-0.4v-0.2h-0.4v-0.2h-0.4v-0.2h-0.5v-0.2h-0.6v-0.2h-1.7v-0.2h-3.6v-0.2h-1.1v-0.2h-0.8V140h-0.7v-0.2h-0.8v-0.2h-0.4
	v-0.2h-0.7v-0.2h-0.2V139h-0.4v-0.2h-0.4l-0.2-0.2v-0.2h-0.2v-0.2H65v-0.2h-0.2V137H65v-0.2h0.2v-0.2h0.7v-0.2h2.8v-0.2h1.1V136h0.6
	v-0.2h0.5v-0.2h0.4v-0.2l0.2-0.2h0.4v-0.2h0.2l0.2-0.2v-0.5h0.2V134h0.2v-0.2h0.2v-0.4h0.2V133h0.2v-0.4h0.2v-0.4h0.2v-0.4H74v-0.2
	h0.2V131h0.2v-0.2h0.2l0.2-0.2v-0.2h0.2V130l0.2-0.2h0.2v-0.2l0.2-0.2h0.2v-0.2h0.2v-0.4h0.2v-0.2h0.2l0.2-0.2v-0.4H77v-0.2h0.2
	v-0.4h0.2V127h0.2v-0.4h0.2v-0.4h0.2l0.2-0.2v-0.5h0.2V125h0.2v-0.4h0.2v-0.4h0.2v-0.4h0.2v-0.2h0.2l0.2-0.2v-0.2H80v-0.4l0.2-0.2
	h0.2v-0.2h0.2v-0.4h0.2v-0.4h0.2V121h0.2v-1.1h0.2v-5.6h-0.2v-1.1h-0.2v-0.6h-0.2v-0.4h-0.2v-0.5h-0.2v-0.4h-0.2v-0.4H80v-0.6h-0.2
	V109h-0.2v-1.7h-0.2v-1.7h0.2l0.2-0.2v-0.2h0.4v0.2h0.4v0.2h0.5v0.2l0.2,0.2h0.2v0.2h0.4l0.2,0.2v0.2h0.2v0.2h0.4v0.2H83v0.2h0.4
	l0.2,0.2v0.2H84v0.2h0.2v0.2h0.2l0.2,0.2v0.2h0.2v0.2h0.2v0.4h0.2l0.2,0.2v0.4h0.2v0.2h0.2v0.4h0.2v0.2h0.2l0.2,0.2v0.2h0.2l0.2,0.2
	v0.2h0.2l0.2,0.2v0.2h0.5v0.2l0.2,0.2h0.2v0.2h0.4v0.2h0.4v0.2l0.2,0.2h0.5v0.2H90v0.2h0.2l0.2,0.2v0.2h0.2v0.4l0.2,0.2h0.2v0.4h0.2
	v0.2h0.2v0.4h0.2v0.2l0.2,0.2h0.2v0.4h0.2v0.2h0.2l0.2,0.2v0.2H93v0.2h0.2l0.2,0.2v0.2h0.2l0.2,0.2v0.2h0.2l0.2,0.2v0.2h0.2v0.2
	l0.2,0.2h0.2v0.2h0.2l0.2,0.2v0.2h0.2v0.2H96v0.2l0.2,0.2h0.5v0.2h0.2v0.2h0.4v0.2h0.4v0.2h0.2v0.2h0.4v0.2h0.4v0.2H99v0.2h0.2v0.2
	h0.4v0.2h0.2v0.2h0.2l0.2,0.2v0.2h0.2l0.2,0.2v0.2h0.2v0.4h0.2v0.2h0.2v0.4h0.2v0.4h0.2v0.4h0.2v0.4h0.2v0.2h0.2l0.2,0.2v0.2h0.2
	l0.2,0.2v0.2h0.2v0.2h0.2v0.2h0.4v0.2h0.4v0.2h0.8v0.2h8.3V128h0.8v-0.2h0.4v-0.2h0.4v-0.2h0.2v-0.2h0.4V127h0.2l0.2-0.2v-0.2h0.4
	v-0.2h0.2v-0.2h0.4v-0.2h0.7v-0.2h0.6v-0.2h0.9v-0.2h0.4V125h0.4v-0.2h0.4v-0.2h0.4v-0.2h0.2v-0.2h0.4V124l0.2-0.2h0.5v-0.2h0.4
	v-0.2h0.6v-0.2h1.5v-0.2h10.1v-0.2h0.6v-0.2h0.7v-0.2h0.2V122h0.4v-0.2h0.4v-0.2l0.2-0.2h0.5v-0.2l0.2-0.2h0.4v-0.2h0.4v-0.2h0.9
	v-0.2h1v-0.2h0.9v-0.2h0.6v-0.2h0.7v-0.2h0.4v-0.2h0.4v-0.2h0.4v-0.2h0.4v-0.2h0.5l0.2-0.2v-0.2h0.4V118h0.4v-0.2h0.2v-0.2h0.2v-0.2
	h0.2v-0.2h0.2l0.2-0.2v-0.2h0.2v-0.4l0.2-0.2h0.2v-0.4h0.2v-0.5h0.2v-0.4h0.2v-0.4h0.2v-0.4h0.2v-0.4h0.2v-0.7h0.2v-0.4h0.2v-0.7
	h0.2v-0.8h0.2v-0.8h0.2v-0.8h0.2v-1.3h0.2v-3.8h0.2v-0.8h0.2v-0.7h0.2v-0.4h0.2v-0.4h0.2v-0.2h0.2v-0.4h0.2v-0.6h0.2v-0.7h0.2V99
	h0.2v-0.9h0.2v-0.8h0.2v-4.7h-0.2v-0.7h-0.2v-0.4h-0.2v-0.4h-0.2v-0.2h-0.2l-0.2-0.2v-0.2H152v-0.2h-0.4V90h-0.2v-0.2h-0.4v-0.2
	h-0.2v-0.2h-0.4v-0.2h-0.2v-0.2h-0.2v-0.2h-0.4v-0.2l-0.2-0.2H149v-0.2l-0.2-0.2h-0.2v-0.2h-0.2v-0.2h-0.4l-0.2-0.2V87h-0.4v-0.2
	h-0.2v-0.2h-0.4v-0.2h-0.2v-0.2H146v-0.2l-0.2-0.2h-0.2v-0.2h-0.4v-0.2h-0.2v-0.2l-0.2-0.2h-0.2v-0.2h-0.4l-0.2-0.2v-0.2h-0.4V84
	h-0.9v-0.2h-1.5v-0.2h-1.3v-0.2h-0.4v-0.2H139V83h-0.4v-0.2h-0.2v-0.2h-0.4v-0.2h-0.2v-0.2h-0.4l-0.2-0.2v-0.2h-0.4v-0.2h-0.2v-0.2
	H136v-0.2h-0.4v-0.2h-0.2v-0.2h-0.4v-0.2h-0.4v-0.2h-0.2V80h-0.4v-0.2h-0.4v-0.2H133v-0.2h-0.4v-0.2h-0.7v-0.2h-0.6v-0.2h-1.1v-0.2
	h-1.3v-0.2h-1v-0.2h-0.7v-0.2h-0.4v-0.2h-0.4v-0.2h-0.5v-0.2h-0.4V77h-0.6v-0.2h-0.7v-0.2h-0.7v-0.2h-0.8v-0.2H122v-0.2h-0.6v-0.2
	H121v-0.2h-0.5v-0.2h-0.4v-0.2h-0.4v-0.2h-0.4v-0.2h-0.4v-0.2h-0.4v-0.2H118V74h-0.7v-0.2h-0.7v-0.2h-0.6v-0.2h-0.7v-0.2h-0.7v-0.2
	h-0.4v-0.2h-0.4v-0.2h-0.4v-0.2h-0.4v-0.2h-0.2v-0.2h-0.4v-0.2H112v-0.2h-0.2v-0.2h-0.4V71h-0.4l-0.2-0.2v-0.2h-0.5v-0.2l-0.2-0.2
	h-0.2v-0.2h-0.4l-0.2-0.2v-0.2H109l-0.2-0.2v-0.2h-0.2v-0.2h-0.2v-0.2h-0.4v-0.2h-4.3v-0.2h-0.8V68h-1.1v-0.2h-2.2v-0.2h-1.3v-0.2
	h-0.7v-0.2h-0.4v-0.2l-0.2-0.2h-0.4v-0.2h-0.5v-0.2h-0.4v-0.2l-0.2-0.2h-0.4v-0.2h-0.5l-0.2-0.2v-0.2h-0.4V65h-0.2v-0.2h-0.4v-0.2
	l-0.2-0.2H93v-0.2h-0.4V64h-0.4v-0.2h-0.4v-0.2h-0.5v-0.2h-0.4v-0.2h-0.6v-0.2h-0.4v-0.2h-0.5v-0.2h-0.4v-0.2h-0.4L88.3,62v-0.2
	h-0.4v-0.2h-0.5l-0.2-0.2v-0.2h-0.4V61h-0.7v-0.2h-0.8v-0.2h-1.9v-0.2h-0.7v-0.2h-0.4v-0.2h-0.4v-0.2h-0.2v-0.2h-0.4v-0.2L81.1,59
	h-0.2v-0.2h-0.2v-0.2h-0.4v-0.2H80v-0.2h-0.4V58h-0.5v-0.2h-0.6v-0.2h-0.4v-0.2h-0.7v-0.2H77v-0.2h-0.4v-0.2h-0.4v-0.2h-0.2v-0.2
	h-0.4V56h-0.4v-0.2h-0.4v-0.2H74v-0.2h-0.8v-0.2h-1.1V55H71v-0.2h-0.8v-0.2h-1.1v-0.2H68v-0.2h-0.6v-0.2h-0.7v-0.2h-0.4v-0.2h-0.4
	v-0.2h-0.4V53h-0.9v-0.2H62.6z M197.7,66.5v0.2h-0.8v0.2h-0.4v0.2h-0.2v0.2l-0.2,0.2h-0.4v0.2h-0.2V68h-0.2v0.4h-0.2v0.2h-0.2v0.4
	h-0.2v0.8h-0.2v0.9h-0.2v0.4h-0.2v0.6h-0.2v0.2h-0.2v0.4h-0.2v0.2l-0.2,0.2h-0.2v0.4h-0.2v0.2h-0.2V74h-0.2v0.4h-0.2v0.4h-0.2v0.7
	h-0.2v0.4h-0.2v0.4h-0.2V77h-0.2v0.4h-0.2v0.2h-0.2v0.4h-0.2v0.4H190v0.4h-0.2v0.4h-0.2v0.2h-0.2V80h-0.2v0.4h-0.2v0.4h-0.2v0.4
	h-0.2v0.2l-0.2,0.2h-0.2v0.2h-0.2l-0.2,0.2v0.2h-0.2l-0.2,0.2v0.2H187v0.4h-0.2v0.2h-0.2v0.2h-0.2V84h-0.2v0.2h-0.2v0.4h-0.2v0.2
	h-0.2v0.4h-0.2v0.4h-0.2l-0.2,0.2v0.2h-0.2v0.4h-0.2v0.2l-0.2,0.2H184v0.4h-0.2v0.2h-0.2v0.4h-0.2v0.4h-0.2v0.2h-0.2v0.4h-0.2v0.4
	h-0.2v0.2h-0.2v0.4h-0.2l-0.2,0.2v0.2h-0.2v0.4h-0.2v0.2h-0.2v0.4H181l-0.2,0.2v0.4h-0.2v0.2h-0.2V93h-0.2v0.4H180v0.2h-0.2v0.2
	h-0.2v0.4h-0.2v0.2h-0.2v0.2l-0.2,0.2h-0.2v0.2l-0.2,0.2h-0.2v0.2h-0.2V96h-0.2v0.2h-0.2v0.2h-0.2v0.2h-0.2l-0.2,0.2v0.2h-0.2v0.4
	h-0.2v0.4h-0.2v0.4h-0.2v0.4h-0.2v0.8h-0.2v0.9h-0.2v0.6h-0.2v0.7h-0.2v0.4h-0.2v0.4h-0.2v0.4h-0.2v0.5h-0.2l-0.2,0.2v0.2h-0.2v0.4
	l-0.2,0.2h-0.2v0.4h-0.2v0.2h-0.2v0.4h-0.2v0.4h-0.2v0.2h-0.2v0.4h-0.2v0.2h-0.2v0.4l-0.2,0.2h-0.2v0.2h-0.2v0.4H171v0.2h-0.2v0.5
	l-0.2,0.2h-0.2v0.4h-0.2v0.4h-0.2v0.5h-0.2v0.6h-0.2v0.7h-0.2v0.7h-0.2v0.4h-0.2l-0.2,0.2v0.4h-0.2v0.2h-0.2v0.2H168l-0.2,0.2v0.2
	h-0.2v0.2h-0.2v0.2l-0.2,0.2h-0.2v0.2h-0.2v0.4h-0.2v0.2l-0.2,0.2h-0.2v0.4h-0.2v0.2h-0.2v0.4h-0.2v0.4h-0.2v0.4H165v0.2h-0.2v0.4
	h-0.2l-0.2,0.2v0.5h-0.2v0.2h-0.2v0.2l-0.2,0.2h-0.2v0.4h-0.2v0.2h-0.2v0.4h-0.2v0.4h-0.2v0.7h-0.2v0.8h-0.2v0.7H162v0.4h-0.2v0.4
	h-0.2v0.2l-0.2,0.2h-0.2v0.2L161,125h-0.2v0.4h-0.2v0.2h-0.2v0.2h-0.2l-0.2,0.2v0.4h-0.2v0.2h-0.2v0.4h-0.2l-0.2,0.2v0.5h-0.2v0.4
	h-0.2l-0.2,0.2v0.2h-0.2v0.4H158v0.2h-0.2l-0.2,0.2v0.2h-0.2l-0.2,0.2v0.2h-0.2v0.2h-0.2v0.2l-0.2,0.2h-0.2v0.2h-0.2v0.4h-0.2v0.2
	l-0.2,0.2h-0.2v0.4h-0.2v0.2H155v0.4h-0.2v0.4h-0.2v0.4h-0.2v0.2h-0.2v0.4h-0.2v0.2h-0.2v0.4h-0.2v0.2h-0.2v0.2l-0.2,0.2h-0.2v0.2
	h-0.2v0.4h-0.2v0.2h-0.2v0.4H152v0.2h-0.2v0.4h-0.2v0.5h-0.2l-0.2,0.2v0.4h-0.2v0.2l-0.2,0.2h-0.2v0.4h-0.2v0.2h-0.2v0.2h-0.2
	l-0.2,0.2v0.2h-0.2v0.4l-0.2,0.2H149v0.5h-0.2v0.4h-0.2v0.4h-0.2v0.6h-0.2v0.7h-0.2v0.7h-0.2v0.4h-0.2v0.2h-0.2v0.4h-0.2l-0.2,0.2
	v0.2h-0.2v0.2h-0.2v0.2l-0.2,0.2H146v0.2h-0.2v0.2h-0.2l-0.2,0.2v0.4h-0.2v0.2h-0.2l-0.2,0.2v0.5h-0.2l-0.2,0.2v0.4h-0.2v0.7h-0.2
	v0.8h-0.2v0.8h0.2v0.9h0.2v0.4h0.2l0.2,0.2v0.2h0.2l0.2,0.2v0.2h0.2v0.2h0.2l0.2,0.2v0.2h0.4v0.2h0.4v0.2h0.5v0.2h0.4v0.2h0.4v0.2
	h0.6v0.2h0.5v0.2h0.4v0.2h0.4v0.2h0.4v0.2h0.2v0.2h0.4v0.2h0.4v0.2h0.4v0.2l0.2,0.2h0.5v0.2h0.4v0.2h0.4v0.2h0.4v0.2h0.2v0.2
	l0.2,0.2h0.4v0.2h0.2v0.2l0.2,0.2h0.2v0.2h0.4v0.2h0.2v0.2h0.4v0.2h0.4v0.2h0.4v0.2h0.4v0.2h0.7v0.2h0.8v0.2h0.7v0.2h0.6v0.2h0.7
	v0.2h0.4v0.2h0.2v0.2h0.4v0.2l0.2,0.2h0.5v0.2l0.2,0.2h0.4v0.2h0.2v0.2h0.4v0.2h0.4v0.2h0.2v0.2h0.4v0.2h0.4l0.2,0.2v0.2h0.5v0.2
	h0.4v0.2h0.6v0.2h0.7v0.2h2.8v0.2h1.3v0.2h0.4v0.2h0.4v0.2h0.2v0.2h0.4l0.2,0.2v0.2h0.2l0.2,0.2v0.2h0.4v0.2h0.2v0.2h0.4v0.2h0.2
	v0.2h0.4v0.2h0.4l0.2,0.2v0.2h0.5v0.2l0.2,0.2h0.4v0.2h0.2v0.2h0.4v0.2h0.2v0.2h0.4v0.2h0.6v0.2h0.9v0.2h1.5v-0.2h0.8v-0.2h0.4v-0.2
	h0.4v-0.2h0.4v-0.2h0.2l0.2-0.2v-0.2h0.2l0.2-0.2v-0.2h0.2v-0.2h0.2l0.2-0.2v-0.2h0.2V168l0.2-0.2h0.2v-0.2h0.2v-0.4h0.2v-0.2
	l0.2-0.2h0.2v-0.2h0.2l0.2-0.2v-0.2h0.4v-0.2h0.2v-0.2h0.2v-0.2h0.5l0.2-0.2V165h0.2v-0.2h0.4v-0.2l0.2-0.2h0.2v-0.2l0.2-0.2h0.2
	v-0.2h0.2v-0.2l0.2-0.2h0.2v-0.2l0.2-0.2h0.2v-0.2l0.2-0.2h0.2v-0.2h0.2V162l0.2-0.2h0.2v-0.2l0.2-0.2h0.2v-0.2h0.2v-0.4h0.2
	l0.2-0.2v-0.2h0.2v-0.4h0.2v-0.2h0.2v-0.4h0.2l0.2-0.2v-0.2h0.2v-0.4h0.2v-0.2h0.2l0.2-0.2v-0.4h0.2v-0.2h0.2v-0.4h0.2v-0.2h0.2
	v-0.4l0.2-0.2h0.2v-0.2l0.2-0.2h0.2v-0.2h0.2v-0.2l0.2-0.2h0.2v-0.2h0.4l0.2-0.2v-0.2h0.4v-0.2h0.2v-0.2h0.2l0.2-0.2v-0.2h0.2v-0.2
	l0.2-0.2h0.2v-0.2h0.2v-0.4h0.2V152h0.2v-0.4h0.2v-0.4h0.2v-0.7h0.2v-0.4h0.2v-0.4h0.2v-0.4h0.2v-0.4h0.2v-0.2h0.2v-0.4h0.2v-0.2
	l0.2-0.2h0.2v-0.2l0.2-0.2h0.2v-0.2l0.2-0.2h0.2v-0.2h0.2v-0.2l0.2-0.2h0.2V146l0.2-0.2h0.2v-0.2h0.2v-0.4h0.2l0.2-0.2v-0.2h0.2
	v-0.2h0.2l0.2-0.2v-0.4h0.2v-0.2h0.2v-0.4h0.2v-0.4h0.2v-0.4h0.2V142h0.2v-0.4h0.2v-0.2h0.2v-0.4h0.2v-0.2h0.2l0.2-0.2v-0.2h0.2
	v-0.4h0.2v-0.2h0.2v-0.2h0.2v-0.2l0.2-0.2h0.2v-0.2l0.2-0.2h0.2v-0.2l0.2-0.2h0.2v-0.2h0.2v-0.2h0.2v-0.2h0.2v-0.2l0.2-0.2h0.2v-0.2
	l0.2-0.2h0.2v-0.2h0.2v-0.2h0.2V136h0.2v-0.2l0.2-0.2h0.2v-0.4h0.2v-0.2h0.2l0.2-0.2v-0.5h0.2l0.2-0.2v-0.2h0.2v-0.4h0.2l0.2-0.2
	V133h0.2v-0.2h0.2v-0.4h0.2l0.2-0.2v-0.2h0.2v-0.2h0.2v-0.2l0.2-0.2h0.2v-0.5l0.2-0.2h0.2v-0.4h0.2v-0.4h0.2v-0.4h0.2v-0.5h0.2v-0.4
	h0.2l0.2-0.2v-0.4h0.2v-0.2h0.2v-0.4h0.2V127l0.2-0.2h0.2v-0.2h0.2l0.2-0.2v-0.2h0.2l0.2-0.2v-0.2h0.2v-0.2h0.2V125h0.2l0.2-0.2
	v-0.2h0.2v-0.2h0.2V124l0.2-0.2h0.2v-0.2h0.2v-0.4h0.2l0.2-0.2v-0.2h0.2v-0.4h0.2V122l0.2-0.2h0.2v-0.2l0.2-0.2h0.2v-0.2l0.2-0.2
	h0.2v-0.2h0.2v-0.2h0.2v-0.2h0.2v-0.2l0.2-0.2h0.2v-0.2h0.2v-0.4h0.2l0.2-0.2v-0.2h0.2v-0.2h0.2l0.2-0.2V118h0.2v-0.4h0.2v-0.5h0.2
	v-0.4h0.2v-0.4h0.2v-0.6h0.2V115h0.2v-0.7h0.2v-0.6h0.2v-0.5h0.2v-0.4l0.2-0.2h0.2v-0.2l0.2-0.2h0.2v-0.5l0.2-0.2h0.2v-0.2h0.2
	l0.2-0.2v-0.2h0.2v-0.4l0.2-0.2h0.2v-0.5h0.2v-0.4h0.2v-0.2h0.2v-0.4h0.2v-0.5h0.2l0.2-0.2v-0.4h0.2v-0.4h0.2v-0.4h0.2v-0.5h0.2V106
	h0.2v-0.6h0.2v-0.5h0.2v-0.4h0.2v-0.4h0.2v-0.4h0.2v-0.4h0.2v-0.4h0.2v-0.2h0.2v-0.4h0.2v-0.4h0.2v-0.4h0.2v-0.4h0.2v-0.4h0.2v-0.7
	h0.2v-0.7h0.2v-0.6h0.2v-1.1h0.2v-0.2h-0.2v-1.1h-0.2v-0.4h-0.2v-0.4h-0.2l-0.2-0.2v-0.4h-0.2v-0.5h-0.2v-0.4h-0.2v-0.4h-0.2v-0.7
	h-0.2v-0.2h-0.2v-0.4h-0.2v-0.2h-0.2l-0.2-0.2v-0.2h-0.2l-0.2-0.2v-0.2h-0.2v-0.2h-0.2v-0.2h-0.4v-0.2h-0.4v-0.2h-0.4V90h-0.4v-0.2
	h-0.4v-0.2h-0.2v-0.2h-0.4l-0.2-0.2v-0.2H230v-0.2h-0.4v-0.2h-0.2l-0.2-0.2v-0.2h-0.2l-0.2-0.2v-0.2h-0.2v-0.2l-0.2-0.2h-0.2V87
	h-0.2l-0.2-0.2v-0.2h-0.2l-0.2-0.2v-0.2H227v-0.2l-0.2-0.2h-0.2v-0.2l-0.2-0.2h-0.2v-0.2h-0.4v-0.2h-0.2v-0.2h-0.4l-0.2-0.2v-0.2
	h-0.5V84h-0.6v-0.2h-0.4v-0.2h-0.2v-0.2h-0.4v-0.2h-0.2l-0.2-0.2v-0.2h-0.2v-0.2h-0.2v-0.4h-0.2l-0.2-0.2v-0.4h-0.2v-0.2H221
	l-0.2-0.2v-0.2h-0.2v-0.4h-0.2v-0.2h-0.2V80h-0.4v-0.2l-0.2-0.2h-0.2v-0.2h-0.2v-0.2h-0.4v-0.2h-0.2v-0.2H218v-0.2h-0.2v-0.2h-0.4
	v-0.2h-0.2v-0.2l-0.2-0.2h-0.2v-0.2h-0.2v-0.2h-0.2l-0.2-0.2v-0.2h-0.2v-0.2h-0.2v-0.2l-0.2-0.2h-0.2v-0.2l-0.2-0.2h-0.2v-0.2h-0.2
	v-0.2h-0.2v-0.2h-0.2v-0.2l-0.2-0.2h-0.2v-0.2l-0.2-0.2h-0.2V74h-0.2v-0.2h-0.4v-0.2h-0.5v-0.2h-0.4v-0.2h-0.4v-0.2h-0.7v-0.2h-0.4
	v-0.2h-0.4v-0.2h-0.4v-0.2H209v-0.2h-0.4v-0.2h-0.4v-0.2h-0.4v-0.2h-0.4V71h-0.5v-0.2h-0.4v-0.2h-0.2v-0.2H206v-0.2h-0.4v-0.2h-0.2
	l-0.2-0.2v-0.2H205l-0.2-0.2v-0.2h-0.4v-0.2h-0.2v-0.2h-0.4v-0.2h-0.2v-0.2h-0.6V68h-0.4v-0.2h-0.7v-0.2h-0.7v-0.2h-0.6v-0.2H200
	v-0.2h-0.6v-0.2h-0.9v-0.2H197.7z M144.3,125.9v0.2h-0.7v0.2H143v0.2h-0.6v0.2H142v0.2h-0.9v0.2h-1.3v0.2h-2.6v0.2h-0.8v0.2h-0.7
	v0.2h-0.4v0.2h-0.4v0.2h-0.4v0.2h-0.7v0.2h-0.4v0.2h-0.8v0.2h-0.8v0.2h-0.9v0.2H130v0.2H125v0.2h-1.7v0.2h-0.7v0.2h-0.4v0.2h-0.7
	v0.2h-0.4v0.2h-0.4v0.2h-0.7v0.2h-1v0.2h-1.7v0.2h-0.8v0.2h-0.7v0.2h-0.4v0.2H115v0.2h-0.4v0.2h-0.4v0.2h-0.5v0.2l-0.2,0.2h-0.4v0.2
	h-0.4v0.2h-0.4v0.2h-0.7v0.2h-0.4v0.2h-0.9v0.2h-0.6v0.2H109v0.2h-0.7v0.2h-0.6v0.2h-0.4v0.2h-0.5v0.2h-0.4v0.2H106v0.2h-0.4v0.2
	h-0.7v0.2h-0.4v0.2h-0.4v0.2h-0.4v0.2h-0.2v0.2h-0.2v0.2H103v0.4h-0.2v1.3h0.2v0.4h0.2v0.2h0.2v0.2l0.2,0.2h0.2v0.2h0.2v0.2h0.2v0.2
	h0.4v0.2l0.2,0.2h0.5v0.2l0.2,0.2h0.4v0.2h0.2l0.2,0.2v0.2h0.4v0.2h0.2v0.2h0.4v0.2h0.2v0.2h0.4v0.2h0.7v0.2h0.4v0.2h0.6v0.2h0.9
	v0.2h0.6v0.2h0.9v0.2h0.4v0.2h0.4v0.2h0.4v0.2h0.4v0.2h0.2v0.2h0.4v0.2h0.4l0.2,0.2v0.2h0.5v0.2h0.4v0.2l0.2,0.2h0.4v0.2h0.2v0.2
	l0.2,0.2h0.5v0.2l0.2,0.2h0.4v0.2h0.2v0.2h0.4v0.2h0.4v0.2h0.2v0.2h0.4v0.2l0.2,0.2h0.4v0.2h0.2v0.2h0.2v0.2h0.4l0.2,0.2v0.2h0.2
	l0.2,0.2v0.2h0.2v0.2h0.4v0.2h0.4v0.2h0.4v0.2h0.4v0.2h2.8v-0.2h0.6v-0.2h0.5v-0.2h0.4l0.2-0.2V152h0.2v-0.2l0.2-0.2h0.4v-0.2h0.2
	v-0.2h0.2v-0.2l0.2-0.2h0.2v-0.2h0.4l0.2-0.2v-0.2h0.2v-0.2h0.2v-0.4l0.2-0.2h0.2v-0.4h0.2v-0.4h0.2v-0.5h0.2v-0.6h0.2v-0.4h0.2
	v-0.5h0.2V146h0.2l0.2-0.2v-0.4h0.2V145h0.2v-0.5h0.2v-0.4h0.2v-0.4h0.2v-0.4h0.2v-0.7h0.2v-0.4h0.2v-0.4h0.2v-0.4h0.2v-0.4h0.2
	v-0.4h0.2v-0.2h0.2v-0.4h0.2v-0.4h0.2v-0.2h0.2v-0.4h0.2l0.2-0.2v-0.2h0.2l0.2-0.2v-0.2h0.2v-0.2h0.4v-0.2h0.7v-0.2h0.6V137h0.9
	v-0.2h0.6v-0.2h0.7v-0.2h0.4v-0.2h0.4V136h0.2v-0.2l0.2-0.2h0.5v-0.2l0.2-0.2h0.2v-0.4h0.2v-0.2h0.2v-0.2h0.2v-0.4h0.2v-0.4h0.2V133
	h0.2v-0.4h0.2v-0.7h0.2v-0.4h0.2V131h0.2v-0.4h0.2V130h0.2v-0.4h0.2v-0.7h0.2v-1.5h-0.2V127h-0.2v-0.4l-0.2-0.2h-0.4v-0.2h-0.4v-0.2
	H144.3z"/>
</svg>
