<?xml version="1.0" encoding="utf-8"?>
<!-- Generator: Adobe Illustrator 24.2.0, SVG Export Plug-In . SVG Version: 6.00 Build 0)  -->
<svg version="1.1" id="Ebene_1" xmlns="http://www.w3.org/2000/svg" xmlns:xlink="http://www.w3.org/1999/xlink" x="0px" y="0px"
	 viewBox="0 0 128 128" style="enable-background:new 0 0 128 128;" xml:space="preserve">
<g>
	<g>
		<path d="M113.4,28.4L70,3.3c-3.7-2.1-8.3-2.1-12,0L14.6,28.4c-3.7,2.1-6,6.1-6,10.4v50.1c0,4.3,2.3,8.3,6,10.4L58,124.3
			c3.7,2.1,8.3,2.1,12,0l43.4-25.1c3.7-2.1,6-6.1,6-10.4V38.7C119.4,34.5,117.1,30.5,113.4,28.4z M52.7,85.3l-9.4-15.5h-0.5
			l-9.4,15.5H23.4l14.1-22.4l-13-20.5h10l8.3,14h0.5l8.3-14h10l-13,20.5l14.1,22.4H52.7z M103.1,72.6c-1,2.6-2.5,4.9-4.4,6.8
			c-1.9,1.9-4.2,3.3-7,4.4s-5.8,1.6-9.2,1.6H68v-43h14.5c3.4,0,6.5,0.5,9.2,1.6s5,2.5,7,4.4s3.4,4.2,4.4,6.8c1,2.6,1.5,5.5,1.5,8.7
			C104.6,67,104.1,69.9,103.1,72.6z"/>
	</g>
	<g>
		<path d="M92.9,53.8c-1.2-1.2-2.7-2.1-4.5-2.8s-3.9-1-6.2-1h-6.1v27.6h6.1c2.4,0,4.4-0.3,6.2-1s3.3-1.6,4.5-2.8s2.1-2.7,2.7-4.3
			s0.9-3.6,0.9-5.7s-0.3-4-0.9-5.7S94.1,55,92.9,53.8z"/>
	</g>
</g>
</svg>
