<?xml version="1.0" encoding="utf-8"?>
<!-- Generator: Adobe Illustrator 24.2.0, SVG Export Plug-In . SVG Version: 6.00 Build 0)  -->
<svg version="1.1" id="Ebene_1" xmlns="http://www.w3.org/2000/svg" xmlns:xlink="http://www.w3.org/1999/xlink" x="0px" y="0px"
	 viewBox="0 0 128 128" style="enable-background:new 0 0 128 128;" xml:space="preserve">
<g>
	<path d="M120.9,43.1L71.1,6.8c-4.2-3.1-9.9-3.1-14.1,0L7.1,43.1c-4.2,3.1-6,8.5-4.4,13.4l19.1,58.7c1.6,4.9,6.2,8.3,11.4,8.3h61.7
		c5.2,0,9.8-3.3,11.4-8.3l19.1-58.7C126.9,51.6,125.2,46.2,120.9,43.1z M56.9,56.5H37.8v10H55v7.7H37.8v10h19.1v7.7H29.7v-43h27.2
		V56.5z M90.3,91.8l-9.4-15.5h-0.5l-9.4,15.5H61l14.1-22.4l-13-20.5h10l8.3,14h0.5l8.3-14h10l-13,20.5l14.1,22.4H90.3z"/>
</g>
</svg>
