<?xml version="1.0" encoding="utf-8"?>
<!-- Generator: Adobe Illustrator 24.2.0, SVG Export Plug-In . SVG Version: 6.00 Build 0)  -->
<svg version="1.1" id="_x30_6c42c9d-6d9c-45ee-a61b-17902c1dca73"
	 xmlns="http://www.w3.org/2000/svg" xmlns:xlink="http://www.w3.org/1999/xlink" x="0px" y="0px" viewBox="0 0 1072.4 708.1"
	 style="enable-background:new 0 0 1072.4 708.1;" xml:space="preserve">
<style type="text/css">
	.st0{opacity:0.15;fill:#FFFFFF;enable-background:new    ;}
	.st1{fill:url(#SVGID_1_);}
	.st2{fill:#FFFFFF;}
	.st3{fill:#5A5773;}
	.st4{opacity:0.2;fill:#E22C78;enable-background:new    ;}
	.st5{opacity:0.1;fill:#5A5773;enable-background:new    ;}
	.st6{fill:#E22C78;}
</style>
<path class="st0" d="M1054.2,551.2c-26.6,54.8-80.5,91.5-136.4,115.6c-75.3,32.5-158.2,45.5-239.9,40c-14.3-1-28.6-2.5-42.8-4.6
	c-49.5-7.2-97.7-21.3-143.3-41.7c-13.2-5.9-26.1-12.4-38.7-19.4c-21.1-11.7-41.3-24.9-60.5-39.5c-4.8-3.7-9.6-7.5-14.3-11.3
	c-3.3-2.7-6.5-5.4-9.7-8.1c-6.9-5.6-14-10.9-21.9-14.9c-2.4-1.2-4.8-2.3-7.3-3.2c-25.1-9.5-54-5.9-80.1,1.5
	c-19.9,5.7-39.2,13.4-59.1,18.9c-8.8,2.5-17.8,4.4-26.9,5.7c-20.3,2.6-40.9,0.8-60.5-5.3l-1.7-0.5c-2.8-0.9-5.6-1.8-8.3-2.9
	l-1.7-0.6c-2.7-1-5.3-2.1-7.8-3.3l-1.7-0.8c-2.7-1.2-5.3-2.5-7.8-3.9c-0.9-0.5-1.8-1-2.7-1.5c-14.5-8.1-27.7-18.4-39.2-30.5
	c-0.3-0.3-0.6-0.7-1-1c-1.6-1.7-3.1-3.5-4.7-5.3c-0.6-0.7-1.1-1.3-1.7-2c-1.8-2.2-3.5-4.4-5.2-6.7c-0.3-0.3-0.5-0.7-0.7-1
	c-6.8-9.4-12.5-19.7-16.9-30.5c-0.1-0.3-0.3-0.7-0.4-1c-1.3-3.4-2.6-6.9-3.7-10.5c-0.4-1.5-0.9-3-1.3-4.5c-0.1-0.4-0.3-0.9-0.4-1.3
	C0.6,455.4,0,432.8,0,410.3c0-2.6,0-5.2,0-7.9c0.2-36.3,0.7-73.3,6.1-109.1c0-0.3,0.1-0.5,0.1-0.7c1.8-12.1,4.2-24,7.3-35.8
	c3.2-12.4,7.3-24.5,12.3-36.3c12.3-29,30.3-55.4,50.2-79.9C126.1,79.1,191.9,27.4,268.9,8.1c83-20.8,175.1-0.9,242,52.4
	c20.4,16.2,38.7,35.5,61.6,47.9c20,10.8,43.4,15.3,64.8,6.8c17.7-7.1,29.2-10.6,49.1-9.5c41.2,2.3,81.7,10.8,120.4,25.2
	c1.6,0.6,3.1,1.2,4.7,1.8c100.7,38.5,187.3,115.1,232.3,213.5c1.2,2.6,2.3,5.2,3.5,7.9C1074.1,416.7,1083.8,490.1,1054.2,551.2z"/>
<linearGradient id="SVGID_1_" gradientUnits="userSpaceOnUse" x1="518.085" y1="173.9169" x2="518.085" y2="712.2469" gradientTransform="matrix(1 0 0 -1 0 819.9939)">
	<stop  offset="0" style="stop-color:#808080;stop-opacity:0.25"/>
	<stop  offset="0.54" style="stop-color:#808080;stop-opacity:0.12"/>
	<stop  offset="1" style="stop-color:#808080;stop-opacity:0.1"/>
</linearGradient>
<path class="st1" d="M55.4,107.7h925.3c6.9,0,12.5,5.6,12.5,12.5v513.4c0,6.9-5.6,12.5-12.5,12.5H55.4c-6.9,0-12.5-5.6-12.5-12.5
	V120.2C42.9,113.3,48.5,107.7,55.4,107.7z"/>
<path class="st2" d="M56.9,115.3h922.4c6.9,0,12.5,5.6,12.5,12.5v504c0,6.9-5.6,12.5-12.5,12.5H56.9c-6.9,0-12.5-5.6-12.5-12.5v-504
	C44.4,120.9,50,115.3,56.9,115.3z"/>
<path class="st2" d="M56.9,115.3h922.4c6.9,0,12.5,5.6,12.5,12.5v504c0,6.9-5.6,12.5-12.5,12.5H56.9c-6.9,0-12.5-5.6-12.5-12.5v-504
	C44.4,120.9,50,115.3,56.9,115.3z"/>
<path class="st3" d="M987,109.2H49.2c-2.7,0-4.8,2.2-4.8,4.8v20.3h947.4v-20.3C991.8,111.4,989.7,109.3,987,109.2z"/>
<g id="_x36_c975d28-8d47-4ade-9154-b3b78f637b65">
	<circle class="st2" cx="63.4" cy="121.8" r="6.5"/>
	<circle class="st2" cx="80.9" cy="121.8" r="6.5"/>
	<circle class="st2" cx="98.4" cy="121.8" r="6.5"/>
</g>
<rect x="122.5" y="181.7" class="st4" width="254.3" height="21.6"/>
<rect x="122.5" y="268.2" class="st5" width="791.4" height="332"/>
<path class="st6" d="M585.8,287.8h-13.5v-26.3c0-29.7-23.7-54.4-53.4-54.8c-30-0.3-54.5,23.7-54.8,53.7c0,0.1,0,0.3,0,0.4v27h-13.5
	c-12.4,0-22.5,10.1-22.5,22.5v108.2c0,12.4,10.1,22.5,22.5,22.5h135.3c12.4,0,22.5-10.1,22.5-22.5V310.4
	C608.3,298,598.2,287.9,585.8,287.8z M526.1,358.2V397c0,4.3-3.3,7.8-7.5,8.1c-4.4,0.2-8.1-3.2-8.3-7.5c0-0.1,0-0.2,0-0.4v-39
	c-8.9-4.4-12.6-15.1-8.3-24.1c4.4-8.9,15.1-12.6,24.1-8.3s12.6,15.1,8.3,24.1C532.6,353.5,529.7,356.4,526.1,358.2L526.1,358.2z
	 M556.5,287.8h-76.7v-27.1c0-21.2,17.2-38.3,38.3-38.3s38.3,17.2,38.3,38.3L556.5,287.8z"/>
<rect x="833.7" y="236.2" class="st5" width="80.1" height="18.9"/>
</svg>
