<?xml version="1.0" encoding="utf-8"?>
<!-- Generator: Adobe Illustrator 24.2.0, SVG Export Plug-In . SVG Version: 6.00 Build 0)  -->
<svg version="1.1" id="a9d5c6ed-9ea4-42a3-ab78-5bac3f9dde90"
	 xmlns="http://www.w3.org/2000/svg" xmlns:xlink="http://www.w3.org/1999/xlink" x="0px" y="0px" viewBox="0 0 924.4 599.9"
	 style="enable-background:new 0 0 924.4 599.9;" xml:space="preserve">
<style type="text/css">
	.st0{fill:#4F1D36;}
	.st1{fill:#3A1425;}
	.st2{fill:#404066;}
	.st3{fill:#FFFFFF;}
	.st4{fill:#3F3D56;}
	.st5{fill:#E22C78;}
</style>
<path class="st0" d="M426,307.3c-30.6,113.6-95.4,213-213,213S0,424.9,0,307.3s124-136.1,213-213C393.8-61.9,521-45.5,426,307.3z"/>
<ellipse class="st1" cx="215.6" cy="520.7" rx="170" ry="23.1"/>
<circle class="st2" cx="206.4" cy="407.7" r="79"/>
<rect x="170.4" y="469.7" class="st2" width="24" height="43"/>
<rect x="218.4" y="469.7" class="st2" width="24" height="43"/>
<ellipse class="st2" cx="190.4" cy="513.2" rx="20" ry="7.5"/>
<ellipse class="st2" cx="238.4" cy="512.2" rx="20" ry="7.5"/>
<circle class="st3" cx="208.4" cy="387.7" r="27"/>
<circle class="st4" cx="208.4" cy="387.7" r="9"/>
<path class="st5" d="M129.8,334.3c-6.4-28.6,14-57.4,45.5-64.5s62.3,10.4,68.6,39s-14.5,39.1-46.1,46.1S136.1,362.8,129.8,334.3z"/>
<circle class="st2" cx="179.4" cy="180.7" r="79"/>
<rect x="143.4" y="242.7" class="st2" width="24" height="43"/>
<rect x="191.4" y="242.7" class="st2" width="24" height="43"/>
<ellipse class="st2" cx="163.4" cy="286.2" rx="20" ry="7.5"/>
<ellipse class="st2" cx="211.4" cy="285.2" rx="20" ry="7.5"/>
<circle class="st3" cx="181.4" cy="160.7" r="27"/>
<circle class="st4" cx="181.4" cy="160.7" r="9"/>
<path class="st5" d="M102.8,107.3c-6.4-28.6,14-57.4,45.5-64.5s62.3,10.4,68.6,39s-14.5,39.1-46.1,46.1S109.1,135.8,102.8,107.3z"/>
<ellipse transform="matrix(0.357 -0.9341 0.9341 0.357 49.2045 313.6335)" class="st2" cx="252.4" cy="121.1" rx="39.5" ry="12.4"/>
<ellipse transform="matrix(0.4285 -0.9035 0.9035 0.4285 -78.5024 164.0335)" class="st2" cx="90.4" cy="144.1" rx="12.4" ry="39.5"/>
<path class="st3" d="M140.6,209.2c0,7.7,19.9,23,42,23s42.8-21.8,42.8-29.5s-20.7,1.5-42.8,1.5S140.6,201.5,140.6,209.2z"/>
<path class="st0" d="M924.4,354c0,81.8-48.6,110.4-108.7,110.4S707.1,435.9,707.1,354s108.7-185.9,108.7-185.9
	S924.4,272.2,924.4,354z"/>
<polygon class="st5" points="811.8,451.9 812.9,383.4 859.2,298.7 813.1,372.7 813.6,341.9 845.5,280.6 813.7,333.7 813.7,333.7 
	814.6,278.4 848.8,229.6 814.8,269.7 815.3,168.1 811.8,302.5 812.1,297 777.3,243.8 811.5,307.6 808.3,369.5 808.2,367.8 
	768.1,311.9 808.1,373.6 807.7,381.4 807.6,381.5 807.6,382.1 799.4,539.1 810.4,539.1 811.7,458 851.5,396.4 "/>
<ellipse class="st1" cx="804.1" cy="539.1" rx="37.8" ry="11.2"/>
<ellipse class="st1" cx="634.6" cy="576.7" rx="170" ry="23.1"/>
<circle class="st2" cx="636.6" cy="458.2" r="79"/>
<rect x="648.6" y="520.2" class="st2" width="24" height="43"/>
<rect x="600.6" y="520.2" class="st2" width="24" height="43"/>
<ellipse transform="matrix(0.866 -0.5 0.5 0.866 -202.4631 379.8605)" class="st2" cx="607.6" cy="567.7" rx="20" ry="7.5"/>
<ellipse transform="matrix(0.866 -0.5 0.5 0.866 -196.1663 403.3605)" class="st2" cx="654.6" cy="567.7" rx="20" ry="7.5"/>
<circle class="st3" cx="634.6" cy="438.2" r="27"/>
<circle class="st4" cx="625.4" cy="426.7" r="9"/>
<path class="st5" d="M713.2,384.8c6.4-28.6-14-57.4-45.5-64.5c-31.5-7-62.3,10.4-68.6,39s14.5,39.1,46.1,46.1
	C676.6,412.5,706.9,413.3,713.2,384.8z"/>
<ellipse transform="matrix(0.3935 -0.9193 0.9193 0.3935 -52.1724 783.0698)" class="st2" cx="567.4" cy="431.1" rx="12.4" ry="39.5"/>
<ellipse transform="matrix(0.3935 -0.9193 0.9193 0.3935 -11.132 951.2767)" class="st2" cx="715.4" cy="484.1" rx="12.4" ry="39.5"/>
<path class="st3" d="M652.4,492.7c0,9.9-8.1,18-18,18c-9.9,0-18-8.1-18-18s8.1-12,18-12C644.3,480.7,652.4,482.8,652.4,492.7z"/>
</svg>
