<?xml version="1.0" encoding="utf-8"?>
<!-- Generator: Adobe Illustrator 24.1.1, SVG Export Plug-In . SVG Version: 6.00 Build 0)  -->
<svg version="1.1" id="aee07f99-5223-45c5-8204-b56b0229636c"
	 xmlns="http://www.w3.org/2000/svg" xmlns:xlink="http://www.w3.org/1999/xlink" x="0px" y="0px" viewBox="0 0 705.6 714.2"
	 style="enable-background:new 0 0 705.6 714.2;" xml:space="preserve">
<style type="text/css">
	.st0{opacity:0.1;}
	.st1{fill:#E6E6E6;}
	.st2{fill:#FFFFFF;}
	.st3{opacity:0.2;enable-background:new    ;}
	.st4{fill:#575A89;}
	.st5{fill:#FFB9B9;}
	.st6{fill:#2F2E41;}
	.st7{opacity:0.1;enable-background:new    ;}
</style>
<ellipse class="st0" cx="153.8" cy="699.2" rx="92.3" ry="15"/>
<polygon class="st1" points="705.6,632.3 334,554.9 334,193.9 705.6,0 "/>
<polygon class="st2" points="704.7,37.9 333.1,215.8 333.1,194.8 704.7,1.2 "/>
<path class="st1" d="M350.3,197.6c0,4.8-1.6,9.5-3.6,10.5c-2,0.9-3.6-2.1-3.6-6.9s1.6-9.4,3.6-10.4
	C348.6,189.7,350.3,192.7,350.3,197.6z"/>
<path class="st1" d="M364.7,190.3c0,4.7-1.6,9.3-3.6,10.2c-2,0.9-3.6-2-3.6-6.7s1.6-9.2,3.6-10.2
	C363.1,182.7,364.7,185.7,364.7,190.3z"/>
<path class="st1" d="M379.1,183.1c0,4.7-1.6,9.3-3.6,10.2c-2,0.9-3.6-2-3.6-6.7s1.6-9.2,3.6-10.2
	C377.5,175.5,379.1,178.5,379.1,183.1z"/>
<polygon class="st3" points="609.1,281.5 380.1,333.9 380.1,267 609.1,186 "/>
<polygon class="st2" points="604.6,276.9 375.5,329.3 375.5,262.5 604.6,181.5 "/>
<path class="st3" d="M417.9,287.9c0,10.8-4.1,20.5-9,21.8c-4.9,1.2-8.7-6.2-8.7-16.7s3.9-20.2,8.7-21.7
	C413.8,269.7,417.9,277.1,417.9,287.9z"/>
<path class="st2" d="M415.2,285.1c0,10.8-4.1,20.5-9,21.8c-4.9,1.2-8.7-6.2-8.7-16.7s3.9-20.2,8.7-21.7
	C411.1,266.9,415.2,274.4,415.2,285.1z"/>
<polygon class="st1" points="549.6,246.9 439.5,278.7 439.5,267.5 549.6,233.6 "/>
<polygon class="st1" points="524.3,279.1 459.4,295.5 459.4,283.9 524.3,266.3 "/>
<polygon class="st3" points="609.2,520.5 380.1,501.3 380.1,367.1 609.2,328.9 "/>
<polygon class="st2" points="603.7,515.9 374.6,496.7 374.6,362.6 603.7,324.4 "/>
<polygon class="st3" points="412.5,400.5 401.8,401.5 401.8,389.8 412.5,388.5 "/>
<polygon class="st2" points="410.7,398.7 400,399.7 400,388 410.7,386.7 "/>
<polygon class="st1" points="549.6,385.5 421.5,397.4 421.5,386.5 549.6,372.1 "/>
<polygon class="st1" points="549.6,428.9 421.5,433.1 421.5,422.2 549.6,415.6 "/>
<polygon class="st1" points="549.6,473.5 421.5,469.6 421.5,458.7 549.6,460.2 "/>
<polygon class="st4" points="143.4,329.2 118.9,329.2 118.9,317.2 139.4,317.2 143.9,319.7 "/>
<polygon class="st5" points="100.8,659.9 101.8,677.9 116.9,674.9 114.3,656.9 "/>
<path class="st5" d="M171.9,650.4c0,0,0.5,15-1,19s4,6,4,6h12l7,1v-7.5c0,0-8-12.5-8-19.5S171.9,650.4,171.9,650.4z"/>
<path class="st6" d="M103.3,674.9c0,0,10-4.7,13.5-1.9s16.5,27.4,11.5,28.9c0,0-3.5,6-15.5,2s-12-8.5-12-8.5s-3.5-3-3.5-4
	s1.5-10,1.5-10s1.1-7.5,2.8-7L103.3,674.9z"/>
<path class="st6" d="M172.9,667.4c0,0-1.5-1.5-2.5,0s-6.5,20.5-1.5,21.5s12.5,4.5,13.5,3.5c0.8-1.1,1.5-2.2,2-3.5
	c0,0,8,3.5,10.5,6.5s32.5,9.5,31.5,0s-16-17.5-16-17.5l-16.5-11c0,0-6.5,0.5-8,3.5S173.9,672.9,172.9,667.4z"/>
<path class="st4" d="M26.3,473.8c0,0-5.5,7-4.5,7.5s23,5.5,35,2.5s37-2.5,38.5-6s20-47,20-47l-6-33l-6.5-8.5l-15-13l-30,56
	L26.3,473.8z"/>
<path class="st7" d="M26.3,473.8c0,0-5.5,7-4.5,7.5s23,5.5,35,2.5s37-2.5,38.5-6s20-47,20-47l-6-33l-6.5-8.5l-15-13l-30,56
	L26.3,473.8z"/>
<path class="st6" d="M89.8,461.8c0,0-7,25,0,59.5s0.5,42,2,43.5s2,1,2,2.5s1.5,8.5,0,11s-1.5,82,3,84s17.5,7,20,0s0.5-57.5,1.5-60
	s1-8.5,1-10s3-18.5,3.5-23s2-13.5,2-13.5s-1-35.5,2-46c3-10.5,4-11.5,4-11.5l24,62.5c0,0-2,6.5,0,8.5s-0.5,1.5,1.5,5s4,4.5,4,6.5
	s-2,2-1,3.5s2.5,7,2.5,7l-2.5,6c0,0,1.5,12.5,3.5,20s2,38,4.5,38.5s22,6,22-5.5s-1.5-61.5-1.5-61.5s-3-7.5-3-9.5s-0.5-3,0.5-4
	s2-3,0.5-4.5s-1-3.5-1-5.5c-0.1-2.7-0.4-5.4-1-8c-0.5-2-10-64.5-10-64.5s2-7.5,0-8s-2-4.5-2-6.5s5-27-1-27S89.8,461.8,89.8,461.8z"
	/>
<path class="st5" d="M23.8,431.8l-7,3.5c0,0-25,13.5-14,21s22-10.5,22-10.5l10.5-8L23.8,431.8z"/>
<path class="st5" d="M121.4,294.7c0,0-2,23-12.5,28s-3.5,42.5-3.5,42.5l14.5,14l25.5-7.5l3-17l2.5-17.5l-6-9c0,0-7.5-2-4.5-22
	S121.4,294.7,121.4,294.7z"/>
<path class="st2" d="M106.3,330.7c0,0,11.5,38,19.5,38s12.5-9,13.5-20s7.5-23,7.5-23l15.5,14c0,0,12.5,110.6,11.5,113.6
	s-40,6.5-55.5,11s-31,1-31-1.5c0-2.2,7.9-21.5,1.9-35.6c-2.2-5-3.7-10.3-4.4-15.8c-0.9-7.4-1.8-16.4-1-19.2c1.5-5,9.5-58,9.5-58
	L106.3,330.7z"/>
<path class="st4" d="M114.8,316.9c0,0-9,4.8-13,6.8s-28.5,8-29,11s3.5,45,1.5,49.5s-22,44.5-22,44.5l-1,8.5c0,0-33,39.5-29,44
	s19-14,19-14s33.5-53.5,34.5-55.5s21.5-39,24.5-40s10-43,11-45S116.3,316.2,114.8,316.9z"/>
<path class="st4" d="M75.3,334.3h-3c0,0-11,42-14,47.5s-3.5,14.5-4,16s-2.5,1-3,4.5s-5.5,8-9.5,10s-22,19-21.5,19.5s6,18,9.5,18
	s17.5-17,19-17s8-6,9-6.5s26.5-47.5,25.5-59S75.3,334.3,75.3,334.3z"/>
<path class="st5" d="M200.1,463.8l6.2,4.8c0,0,21.8,18.2,9.5,23.4s-19.5-14.7-19.5-14.7l-8.7-9.9L200.1,463.8z"/>
<path class="st4" d="M139.8,317.5c0,0,6.6,3.2,9.6,5.7s26,9,26,11s-2.5,33-2.5,33l3.5,55c0,0,5,62,6,63.5s2.5,9.5,0,9.5
	s-15-14-14.5-21s4-23,0.5-27s-20-71-20-75s-7-44-6.5-45S139.8,317.5,139.8,317.5z"/>
<path class="st4" d="M167.9,333.8l7.5,0.5l18.5,75.5c0,0,1.5,9.5,2,10.5s8,44.5,5,46s-13,7-13.5,3.5s-5.5-23-10.5-27.5s-10-82-10-82
	L167.9,333.8z"/>
<circle class="st5" cx="137.9" cy="287.7" r="20.5"/>
<path class="st6" d="M123.5,289.2c1.3-0.7,3,0,4.2,1.4c2.3-10.8,12.9-17.8,23.7-15.5c1.9,0.4,3.7,1.1,5.4,2V275
	c0-9.6-7.8-17.3-17.3-17.3h-4.2c-18,0-32.5,14.6-32.5,32.5c0,0,0,0,0,0v5.8c0,11,6.2,21,16,26l18.7-9.9c-5.5-3.1-9.2-8.6-10-14.9
	c-1.6,0.7-3.7-0.4-4.8-2.6C121.6,292.5,122,290,123.5,289.2z"/>
</svg>
