<?xml version="1.0" encoding="utf-8"?>
<!-- Generator: Adobe Illustrator 24.2.0, SVG Export Plug-In . SVG Version: 6.00 Build 0)  -->
<svg version="1.1" id="Ebene_1" xmlns="http://www.w3.org/2000/svg" xmlns:xlink="http://www.w3.org/1999/xlink" x="0px" y="0px"
	 viewBox="0 0 828.37 200" style="enable-background:new 0 0 828.37 200;" xml:space="preserve">
<style type="text/css">
	.st0{fill:#FB1357;}
	.st1{fill:#25A7FB;}
	.st2{fill:#3DFB84;}
	.st3{fill:#FFFFFF;}
</style>
<g>
	<path class="st0" d="M100,190V10c0-5.52-4.48-10-10-10S80,4.48,80,10v180c0,5.52,4.48,10,10,10S100,195.52,100,190z"/>
	<path class="st1" d="M130,25c-5.52,0-10,4.48-10,10v130c0,5.52,4.48,10,10,10s10-4.48,10-10V35C140,29.48,135.52,25,130,25z"/>
	<path class="st2" d="M170,50c-5.52,0-10,4.48-10,10v80c0,5.52,4.48,10,10,10s10-4.48,10-10V60C180,54.48,175.52,50,170,50z"/>
	<path class="st2" d="M10,150c5.52,0,10-4.48,10-10V60c0-5.52-4.48-10-10-10S0,54.48,0,60v80C0,145.52,4.48,150,10,150z"/>
	<path class="st1" d="M50,25c-5.52,0-10,4.48-10,10v130c0,5.52,4.48,10,10,10s10-4.48,10-10V35C60,29.48,55.52,25,50,25z"/>
</g>
<g>
	<path class="st3" d="M288.83,138.84c-6.79,7.36-17.55,10.19-27.17,10.19c-8.49,0-17.26-1.42-24.9-5.09
		c-4.53-2.26-7.92-6.23-7.92-11.6c0-4.81,4.24-9.62,9.34-9.62c1.98,0,3.68,0.28,5.38,0.85l7.64,2.83c3.11,1.41,6.79,2.26,10.47,2.26
		c5.66,0,11.89-3.4,11.89-9.91c0-2.83-1.13-5.38-3.4-6.79c-4.53-2.83-10.19-4.25-15.28-5.66c-14.43-4.24-25.47-9.06-25.47-26.32
		c0-18.96,16.7-30.28,34.24-30.28c8.49,0,26.6,2.26,26.6,13.3c0,5.94-4.25,10.75-9.9,10.75c-1.13,0-2.26-0.28-3.4-0.57l-3.96-1.41
		c-3.11-1.13-6.51-1.7-9.62-1.7c-4.81,0-10.75,2.26-10.75,7.64c0,4.81,4.81,7.07,8.77,8.21l5.66,1.41
		c15.28,4.25,29.71,10.75,29.71,28.3C296.76,123.84,294.49,132.62,288.83,138.84z"/>
	<path class="st3" d="M342.32,147.9c-6.51,0-11.32-2.26-16.13-6.23v22.64c0,6.23-3.68,11.6-10.47,11.6
		c-6.51,0-10.47-5.38-10.47-11.6v-78.1c0-6.23,2.83-12.45,9.9-12.45c5.66,0,8.21,3.11,10.19,7.92c4.53-5.09,10.19-8.21,17.26-8.21
		c7.92,0,15,2.26,20.66,7.92c7.36,7.07,11.32,17.55,11.32,27.73C374.58,128.37,363.55,147.9,342.32,147.9z M340.34,92.71
		c-9.9,0-15,9.06-15,17.83c0,8.77,5.09,18.11,15,18.11c8.77,0,13.58-9.91,13.58-18.11C353.92,102.62,349.11,92.71,340.34,92.71z"/>
	<path class="st3" d="M392.98,66.96c-6.79,0-12.17-5.66-12.17-12.17s5.38-12.17,12.17-12.17c6.51,0,11.89,5.66,11.89,12.17
		S399.49,66.96,392.98,66.96z M392.7,147.61c-6.51,0-10.47-5.66-10.47-11.89V85.36c0-6.23,3.68-11.6,10.47-11.6
		c6.51,0,10.47,5.38,10.47,11.6v50.37C403.17,142.24,399.49,147.61,392.7,147.61z"/>
	<path class="st3" d="M469.1,147.61c-6.51,0-10.47-5.66-10.47-11.89v-31.41c0-7.07-3.96-13.02-11.89-13.02
		c-6.51,0-11.32,5.94-11.32,12.17v32.26c0,6.51-3.68,11.89-10.47,11.89c-6.51,0-10.47-5.66-10.47-11.89V85.92
		c0-6.23,3.4-11.89,10.19-12.17h0.57c4.53,0,7.92,3.11,9.62,7.36c5.66-5.38,11.04-7.64,18.96-7.64c6.51,0,13.02,1.7,18.11,6.23
		c6.23,5.38,7.64,11.89,7.64,19.81v36.22C479.57,142.24,475.9,147.61,469.1,147.61z"/>
	<path class="st3" d="M547.78,138.84c-6.79,7.36-17.54,10.19-27.17,10.19c-8.49,0-17.26-1.42-24.9-5.09
		c-4.53-2.26-7.92-6.23-7.92-11.6c0-4.81,4.25-9.62,9.34-9.62c1.98,0,3.68,0.28,5.38,0.85l7.64,2.83c3.11,1.41,6.79,2.26,10.47,2.26
		c5.66,0,11.89-3.4,11.89-9.91c0-2.83-1.13-5.38-3.4-6.79c-4.53-2.83-10.19-4.25-15.28-5.66c-14.43-4.24-25.47-9.06-25.47-26.32
		c0-18.96,16.7-30.28,34.24-30.28c8.49,0,26.6,2.26,26.6,13.3c0,5.94-4.25,10.75-9.9,10.75c-1.13,0-2.26-0.28-3.4-0.57l-3.96-1.41
		c-3.11-1.13-6.51-1.7-9.62-1.7c-4.81,0-10.75,2.26-10.75,7.64c0,4.81,4.81,7.07,8.77,8.21l5.66,1.41
		c15.28,4.25,29.71,10.75,29.71,28.3C555.7,123.84,553.44,132.62,547.78,138.84z"/>
	<path class="st3" d="M619.09,147.61c-6.51,0-10.47-5.66-10.47-11.89v-30.28c0-7.36-3.11-14.15-11.88-14.15
		c-6.79,0-11.6,6.23-11.6,12.73v31.69c0,6.51-3.68,11.89-10.47,11.89c-6.51,0-10.47-5.66-10.47-11.89v-81.5
		c0-6.23,3.68-11.6,10.47-11.6c6.51,0,10.47,5.38,10.47,11.6v25.19c5.66-3.4,11.89-5.94,18.68-5.94s13.58,1.98,18.68,6.79
		c5.66,5.38,7.07,11.89,7.07,19.53v35.94C629.56,142.24,625.89,147.61,619.09,147.61z"/>
	<path class="st3" d="M696.07,147.61c-5.09,0-8.49-3.96-9.9-8.49c-5.09,5.94-9.62,8.77-17.55,8.77c-7.36,0-14.71-3.11-20.38-7.92
		c-8.49-7.64-12.17-18.39-12.17-29.43c0-10.75,3.11-20.09,10.75-27.73c5.66-5.66,13.3-9.62,21.51-9.62c7.64,0,12.45,2.83,17.83,8.21
		c1.98-4.25,5.09-7.64,10.19-7.64c5.94,0,10.47,4.81,10.47,10.75v50.66C706.82,141.67,702.86,147.61,696.07,147.61z M670.6,92.71
		c-9.34,0-13.87,9.34-13.87,17.55c0,8.49,3.96,18.11,13.87,18.11c9.62,0,15-8.49,15-17.26C685.6,101.49,681.36,92.71,670.6,92.71z"
		/>
	<path class="st3" d="M751.82,93.56c-3.68,1.42-7.64,2.83-11.04,5.38c-2.55,1.98-3.11,5.09-3.11,8.49v28.3
		c0,6.51-3.68,11.89-10.47,11.89c-6.51,0-10.47-5.66-10.47-11.89V85.64c0-2.83,0.57-5.94,2.55-8.21c1.98-2.26,4.81-3.68,7.64-3.68
		c5.09,0,8.49,2.83,10.75,7.36c3.68-3.68,8.21-7.64,13.87-7.64c5.94,0,11.04,4.24,11.04,9.9C762.57,90.17,757.2,91.86,751.82,93.56z
		"/>
	<path class="st3" d="M819.32,117.33h-38.77c1.42,3.68,3.11,6.79,6.23,9.06c2.83,2.26,6.23,3.4,9.91,3.4c3.96,0,7.92-1.13,11.6-2.83
		l5.94-3.11c1.13-0.57,2.55-0.85,3.96-0.85h0.28c4.53,0,8.77,4.25,8.77,8.49c0,4.81-4.81,8.49-8.49,10.47
		c-7.08,4.25-15,5.94-23.21,5.94c-11.32,0-22.07-4.53-29.43-13.3c-5.94-7.36-7.92-15.28-7.92-24.34c0-20.09,15.56-37.07,35.94-37.07
		c19.53,0,34.24,15.85,34.24,34.81C828.37,114.5,825.82,117.33,819.32,117.33z M793.85,90.17c-7.92,0-11.6,6.23-13.87,13.02H808
		C806.02,96.11,802.34,90.17,793.85,90.17z"/>
</g>
</svg>
