<?xml version="1.0" encoding="utf-8"?>
<!-- Generator: Adobe Illustrator 25.2.3, SVG Export Plug-In . SVG Version: 6.00 Build 0)  -->
<svg version="1.1" id="Ebene_1" xmlns="http://www.w3.org/2000/svg" xmlns:xlink="http://www.w3.org/1999/xlink" x="0px" y="0px"
	 viewBox="0 0 828.4 200" style="enable-background:new 0 0 828.4 200;" xml:space="preserve">
<style type="text/css">
	.st0{clip-path:url(#SVGID_2_);}
	.st1{fill:#750787;}
	.st2{fill:#004DFF;}
	.st3{fill:#008026;}
	.st4{fill:#FFED00;}
	.st5{fill:#FF8C00;}
	.st6{fill:#E40303;}
	.st7{fill:#784F17;}
	.st8{clip-path:url(#SVGID_4_);}
	.st9{clip-path:url(#SVGID_6_);}
	.st10{clip-path:url(#SVGID_8_);}
	.st11{clip-path:url(#SVGID_10_);}
	.st12{fill:#FFFFFF;}
</style>
<g>
	<defs>
		<path id="SVGID_1_" d="M100,190V10c0-5.5-4.5-10-10-10S80,4.5,80,10v180c0,5.5,4.5,10,10,10S100,195.5,100,190z"/>
	</defs>
	<clipPath id="SVGID_2_">
		<use xlink:href="#SVGID_1_"  style="overflow:visible;"/>
	</clipPath>
	<g class="st0">
		<path class="st1" d="M-16,0h231v201H-16V0z"/>
		<path class="st2" d="M-16,0h231v175.9H-16V0z"/>
		<path class="st3" d="M-16,0h231v150.8H-16V0z"/>
		<path class="st4" d="M-16,0h231v125.6H-16V0z"/>
		<path class="st5" d="M-16,0h231v100.5H-16V0z"/>
		<path class="st6" d="M-16,0h231v75.4H-16V0z"/>
		<path class="st7" d="M-16,0h231v50.2H-16V0z"/>
		<path d="M-16,0h231v25.1H-16V0z"/>
	</g>
</g>
<g>
	<defs>
		<path id="SVGID_3_" d="M130,25c-5.5,0-10,4.5-10,10v130c0,5.5,4.5,10,10,10c5.5,0,10-4.5,10-10V35C140,29.5,135.5,25,130,25z"/>
	</defs>
	<clipPath id="SVGID_4_">
		<use xlink:href="#SVGID_3_"  style="overflow:visible;"/>
	</clipPath>
	<g class="st8">
		<path class="st1" d="M-16,25h231v151H-16V25z"/>
		<path class="st2" d="M-16,25h231v132.1H-16V25z"/>
		<path class="st3" d="M-16,25h231v113.2H-16V25z"/>
		<path class="st4" d="M-16,25h231v94.4H-16V25z"/>
		<path class="st5" d="M-16,25h231v75.5H-16V25z"/>
		<path class="st6" d="M-16,25h231v56.6H-16V25z"/>
		<path class="st7" d="M-16,25h231v37.8H-16V25z"/>
		<path d="M-16,25h231v18.9H-16V25z"/>
	</g>
</g>
<g>
	<defs>
		<path id="SVGID_5_" d="M170,50c-5.5,0-10,4.5-10,10v80c0,5.5,4.5,10,10,10s10-4.5,10-10V60C180,54.5,175.5,50,170,50z"/>
	</defs>
	<clipPath id="SVGID_6_">
		<use xlink:href="#SVGID_5_"  style="overflow:visible;"/>
	</clipPath>
	<g class="st9">
		<path class="st1" d="M-16,49.7h231v101.6H-16V49.7z"/>
		<path class="st2" d="M-16,49.7h231v88.9H-16V49.7z"/>
		<path class="st3" d="M-16,49.7h231v76.2H-16V49.7z"/>
		<path class="st4" d="M-16,49.7h231v63.5H-16V49.7z"/>
		<path class="st5" d="M-16,49.7h231v50.8H-16V49.7z"/>
		<path class="st6" d="M-16,49.7h231v38.1H-16V49.7z"/>
		<path class="st7" d="M-16,49.7h231v25.4H-16V49.7z"/>
		<path d="M-16,49.7h231v12.7H-16V49.7z"/>
	</g>
</g>
<g>
	<defs>
		<path id="SVGID_7_" d="M10,150c5.5,0,10-4.5,10-10V60c0-5.5-4.5-10-10-10S0,54.5,0,60v80C0,145.5,4.5,150,10,150z"/>
	</defs>
	<clipPath id="SVGID_8_">
		<use xlink:href="#SVGID_7_"  style="overflow:visible;"/>
	</clipPath>
	<g class="st10">
		<path class="st1" d="M-16,49.7h231v101.6H-16V49.7z"/>
		<path class="st2" d="M-16,49.7h231v88.9H-16V49.7z"/>
		<path class="st3" d="M-16,49.7h231v76.2H-16V49.7z"/>
		<path class="st4" d="M-16,49.7h231v63.5H-16V49.7z"/>
		<path class="st5" d="M-16,49.7h231v50.8H-16V49.7z"/>
		<path class="st6" d="M-16,49.7h231v38.1H-16V49.7z"/>
		<path class="st7" d="M-16,49.7h231v25.4H-16V49.7z"/>
		<path d="M-16,49.7h231v12.7H-16V49.7z"/>
	</g>
</g>
<g>
	<defs>
		<path id="SVGID_9_" d="M50,25c-5.5,0-10,4.5-10,10v130c0,5.5,4.5,10,10,10s10-4.5,10-10V35C60,29.5,55.5,25,50,25z"/>
	</defs>
	<clipPath id="SVGID_10_">
		<use xlink:href="#SVGID_9_"  style="overflow:visible;"/>
	</clipPath>
	<g class="st11">
		<path class="st1" d="M-16,25h231v151H-16V25z"/>
		<path class="st2" d="M-16,25h231v132.1H-16V25z"/>
		<path class="st3" d="M-16,25h231v113.2H-16V25z"/>
		<path class="st4" d="M-16,25h231v94.4H-16V25z"/>
		<path class="st5" d="M-16,25h231v75.5H-16V25z"/>
		<path class="st6" d="M-16,25h231v56.6H-16V25z"/>
		<path class="st7" d="M-16,25h231v37.8H-16V25z"/>
		<path d="M-16,25h231v18.9H-16V25z"/>
	</g>
</g>
<g>
	<path class="st12" d="M288.8,138.8c-6.8,7.4-17.5,10.2-27.2,10.2c-8.5,0-17.3-1.4-24.9-5.1c-4.5-2.3-7.9-6.2-7.9-11.6
		c0-4.8,4.2-9.6,9.3-9.6c2,0,3.7,0.3,5.4,0.8l7.6,2.8c3.1,1.4,6.8,2.3,10.5,2.3c5.7,0,11.9-3.4,11.9-9.9c0-2.8-1.1-5.4-3.4-6.8
		c-4.5-2.8-10.2-4.2-15.3-5.7c-14.4-4.2-25.5-9.1-25.5-26.3c0-19,16.7-30.3,34.2-30.3c8.5,0,26.6,2.3,26.6,13.3
		c0,5.9-4.2,10.7-9.9,10.7c-1.1,0-2.3-0.3-3.4-0.6l-4-1.4c-3.1-1.1-6.5-1.7-9.6-1.7c-4.8,0-10.8,2.3-10.8,7.6c0,4.8,4.8,7.1,8.8,8.2
		l5.7,1.4c15.3,4.2,29.7,10.8,29.7,28.3C296.8,123.8,294.5,132.6,288.8,138.8z"/>
	<path class="st12" d="M342.3,147.9c-6.5,0-11.3-2.3-16.1-6.2v22.6c0,6.2-3.7,11.6-10.5,11.6c-6.5,0-10.5-5.4-10.5-11.6V86.2
		c0-6.2,2.8-12.4,9.9-12.4c5.7,0,8.2,3.1,10.2,7.9c4.5-5.1,10.2-8.2,17.3-8.2c7.9,0,15,2.3,20.7,7.9c7.4,7.1,11.3,17.6,11.3,27.7
		C374.6,128.4,363.5,147.9,342.3,147.9z M340.3,92.7c-9.9,0-15,9.1-15,17.8s5.1,18.1,15,18.1c8.8,0,13.6-9.9,13.6-18.1
		C353.9,102.6,349.1,92.7,340.3,92.7z"/>
	<path class="st12" d="M393,67c-6.8,0-12.2-5.7-12.2-12.2s5.4-12.2,12.2-12.2c6.5,0,11.9,5.7,11.9,12.2S399.5,67,393,67z
		 M392.7,147.6c-6.5,0-10.5-5.7-10.5-11.9V85.4c0-6.2,3.7-11.6,10.5-11.6c6.5,0,10.5,5.4,10.5,11.6v50.4
		C403.2,142.2,399.5,147.6,392.7,147.6z"/>
	<path class="st12" d="M469.1,147.6c-6.5,0-10.5-5.7-10.5-11.9v-31.4c0-7.1-4-13-11.9-13c-6.5,0-11.3,5.9-11.3,12.2v32.3
		c0,6.5-3.7,11.9-10.5,11.9c-6.5,0-10.5-5.7-10.5-11.9V85.9c0-6.2,3.4-11.9,10.2-12.2h0.6c4.5,0,7.9,3.1,9.6,7.4
		c5.7-5.4,11-7.6,19-7.6c6.5,0,13,1.7,18.1,6.2c6.2,5.4,7.6,11.9,7.6,19.8v36.2C479.6,142.2,475.9,147.6,469.1,147.6z"/>
	<path class="st12" d="M547.8,138.8c-6.8,7.4-17.5,10.2-27.2,10.2c-8.5,0-17.3-1.4-24.9-5.1c-4.5-2.3-7.9-6.2-7.9-11.6
		c0-4.8,4.2-9.6,9.3-9.6c2,0,3.7,0.3,5.4,0.8l7.6,2.8c3.1,1.4,6.8,2.3,10.5,2.3c5.7,0,11.9-3.4,11.9-9.9c0-2.8-1.1-5.4-3.4-6.8
		c-4.5-2.8-10.2-4.2-15.3-5.7c-14.4-4.2-25.5-9.1-25.5-26.3c0-19,16.7-30.3,34.2-30.3c8.5,0,26.6,2.3,26.6,13.3
		c0,5.9-4.2,10.7-9.9,10.7c-1.1,0-2.3-0.3-3.4-0.6l-4-1.4c-3.1-1.1-6.5-1.7-9.6-1.7c-4.8,0-10.8,2.3-10.8,7.6c0,4.8,4.8,7.1,8.8,8.2
		l5.7,1.4c15.3,4.2,29.7,10.8,29.7,28.3C555.7,123.8,553.4,132.6,547.8,138.8z"/>
	<path class="st12" d="M619.1,147.6c-6.5,0-10.5-5.7-10.5-11.9v-30.3c0-7.4-3.1-14.2-11.9-14.2c-6.8,0-11.6,6.2-11.6,12.7v31.7
		c0,6.5-3.7,11.9-10.5,11.9c-6.5,0-10.5-5.7-10.5-11.9V54.2c0-6.2,3.7-11.6,10.5-11.6c6.5,0,10.5,5.4,10.5,11.6v25.2
		c5.7-3.4,11.9-5.9,18.7-5.9s13.6,2,18.7,6.8c5.7,5.4,7.1,11.9,7.1,19.5v35.9C629.6,142.2,625.9,147.6,619.1,147.6z"/>
	<path class="st12" d="M696.1,147.6c-5.1,0-8.5-4-9.9-8.5c-5.1,5.9-9.6,8.8-17.5,8.8c-7.4,0-14.7-3.1-20.4-7.9
		c-8.5-7.6-12.2-18.4-12.2-29.4c0-10.8,3.1-20.1,10.8-27.7c5.7-5.7,13.3-9.6,21.5-9.6c7.6,0,12.5,2.8,17.8,8.2
		c2-4.2,5.1-7.6,10.2-7.6c5.9,0,10.5,4.8,10.5,10.8v50.7C706.8,141.7,702.9,147.6,696.1,147.6z M670.6,92.7
		c-9.3,0-13.9,9.3-13.9,17.5c0,8.5,4,18.1,13.9,18.1c9.6,0,15-8.5,15-17.3C685.6,101.5,681.4,92.7,670.6,92.7z"/>
	<path class="st12" d="M751.8,93.6c-3.7,1.4-7.6,2.8-11,5.4c-2.5,2-3.1,5.1-3.1,8.5v28.3c0,6.5-3.7,11.9-10.5,11.9
		c-6.5,0-10.5-5.7-10.5-11.9V85.6c0-2.8,0.6-5.9,2.5-8.2c2-2.3,4.8-3.7,7.6-3.7c5.1,0,8.5,2.8,10.8,7.4c3.7-3.7,8.2-7.6,13.9-7.6
		c5.9,0,11,4.2,11,9.9C762.6,90.2,757.2,91.9,751.8,93.6z"/>
	<path class="st12" d="M819.3,117.3h-38.8c1.4,3.7,3.1,6.8,6.2,9.1c2.8,2.3,6.2,3.4,9.9,3.4c4,0,7.9-1.1,11.6-2.8l5.9-3.1
		c1.1-0.6,2.5-0.8,4-0.8h0.3c4.5,0,8.8,4.2,8.8,8.5c0,4.8-4.8,8.5-8.5,10.5c-7.1,4.2-15,5.9-23.2,5.9c-11.3,0-22.1-4.5-29.4-13.3
		c-5.9-7.4-7.9-15.3-7.9-24.3c0-20.1,15.6-37.1,35.9-37.1c19.5,0,34.2,15.8,34.2,34.8C828.4,114.5,825.8,117.3,819.3,117.3z
		 M793.8,90.2c-7.9,0-11.6,6.2-13.9,13h28C806,96.1,802.3,90.2,793.8,90.2z"/>
</g>
</svg>
